<svg xmlns="http://www.w3.org/2000/svg" width="290.321" height="360" viewBox="0 0 290.321 360">
  <g id="그룹_146" data-name="그룹 146" transform="translate(-36.829 -133)">
    <g id="coin_web_main" transform="translate(8.4 75.4)">
      <path id="패스_501" data-name="패스 501" d="M29.7,59h4.423a28.977,28.977,0,0,1,5.738.359,4.26,4.26,0,0,1,2.271,1.315,4.548,4.548,0,0,1,.956,2.032,29.254,29.254,0,0,1,.239,4.3V74.9a26.526,26.526,0,0,1-.239,4.064,2.337,2.337,0,0,1-.956,1.554,4.159,4.159,0,0,1-1.793.837,17.329,17.329,0,0,1-3.227.359H29.7Zm5.857,3.825V77.767c.837,0,1.315-.12,1.554-.478a7.109,7.109,0,0,0,.239-2.749V65.694a8.006,8.006,0,0,0-.12-2.032.841.841,0,0,0-.478-.6A2.217,2.217,0,0,0,35.557,62.825Z" transform="translate(0.215 0.078)" fill="none" stroke="#fff" stroke-miterlimit="10" stroke-width="0.3"/>
      <path id="패스_502" data-name="패스 502" d="M64.82,59h9.8v4.542H70.677v4.3h3.706v4.3H70.677v5.02h4.3v4.542H64.7V59Z" transform="translate(7.052 0.078)" fill="none" stroke="#fff" stroke-miterlimit="10" stroke-width="0.3"/>
      <path id="패스_503" data-name="패스 503" d="M110.82,59l-2.988,22.712H98.867L95.4,59h6.216c.717,6.216,1.2,11.475,1.554,15.9.359-4.423.6-8.248.956-11.595l.359-4.184h6.335Z" transform="translate(13.052 0.078)" fill="none" stroke="#fff" stroke-miterlimit="10" stroke-width="0.3"/>
      <path id="패스_504" data-name="패스 504" d="M131,59h9.8v4.542h-3.825v4.3h3.706v4.3h-3.706v5.02h4.3v4.542H131Z" transform="translate(20.007 0.078)" fill="none" stroke="#fff" stroke-miterlimit="10" stroke-width="0.3"/>
      <path id="패스_505" data-name="패스 505" d="M168.757,59V77.169h3.586v4.542H162.9V59Z" transform="translate(26.24 0.078)" fill="none" stroke="#fff" stroke-miterlimit="10" stroke-width="0.3"/>
      <path id="패스_506" data-name="패스 506" d="M206.907,72.346a46.628,46.628,0,0,1-.12,4.781,7.8,7.8,0,0,1-.956,2.63,4.28,4.28,0,0,1-2.271,1.793,9.3,9.3,0,0,1-3.347.6,9.126,9.126,0,0,1-3.227-.6,5.093,5.093,0,0,1-2.391-1.793,5.606,5.606,0,0,1-1.076-2.63c-.12-.956-.12-2.51-.12-4.9V68.4a46.639,46.639,0,0,1,.12-4.781,7.8,7.8,0,0,1,.956-2.63,4.28,4.28,0,0,1,2.271-1.793,9.3,9.3,0,0,1,3.347-.6,9.126,9.126,0,0,1,3.227.6,5.093,5.093,0,0,1,2.391,1.793,5.606,5.606,0,0,1,1.076,2.63c.12.956.12,2.51.12,4.9Zm-5.857-7.411a8.005,8.005,0,0,0-.12-2.032.655.655,0,0,0-.717-.478.723.723,0,0,0-.717.359,6.279,6.279,0,0,0-.239,2.152V75.574a9.838,9.838,0,0,0,.12,2.391.807.807,0,0,0,.717.478c.359,0,.717-.12.717-.478s.12-1.2.12-2.51V64.935Z" transform="translate(32.199 0)" fill="none" stroke="#fff" stroke-miterlimit="10" stroke-width="0.3"/>
      <path id="패스_507" data-name="패스 507" d="M228.4,59h5.977a14.816,14.816,0,0,1,3.706.359,3.672,3.672,0,0,1,1.913,1.076,4.415,4.415,0,0,1,.837,1.673,17,17,0,0,1,.239,3.108v2.152a6.707,6.707,0,0,1-.478,3.108,3.554,3.554,0,0,1-1.673,1.554,7.721,7.721,0,0,1-3.108.478h-1.554v9.2H228.4Zm5.977,3.825v5.738h.478q.9,0,1.076-.359a3.841,3.841,0,0,0,.359-1.673V64.618a2.465,2.465,0,0,0-.359-1.554C235.692,62.825,235.094,62.825,234.377,62.825Z" transform="translate(39.039 0.078)" fill="none" stroke="#fff" stroke-miterlimit="10" stroke-width="0.3"/>
      <path id="패스_508" data-name="패스 508" d="M262.32,59h9.8v4.542h-3.945v4.3h3.706v4.3h-3.706v5.02h4.3v4.542H262.2V59Z" transform="translate(45.642 0.078)" fill="none" stroke="#fff" stroke-miterlimit="10" stroke-width="0.3"/>
      <path id="패스_509" data-name="패스 509" d="M29.7,73h4.423a28.977,28.977,0,0,1,5.738.359,4.26,4.26,0,0,1,2.271,1.315,4.548,4.548,0,0,1,.956,2.032,29.254,29.254,0,0,1,.239,4.3V88.9a26.526,26.526,0,0,1-.239,4.064,2.337,2.337,0,0,1-.956,1.554,4.159,4.159,0,0,1-1.793.837,17.327,17.327,0,0,1-3.227.359H29.7Zm5.857,3.825V91.767c.837,0,1.315-.12,1.554-.478a7.109,7.109,0,0,0,.239-2.749V79.694a8.006,8.006,0,0,0-.12-2.032.841.841,0,0,0-.478-.6A2.217,2.217,0,0,0,35.557,76.825Z" transform="translate(0.215 2.813)" fill="none" stroke="#fff" stroke-miterlimit="10" stroke-width="0.3"/>
      <path id="패스_510" data-name="패스 510" d="M77.72,73h9.8v4.542H83.577v4.3h3.706v4.3H83.577v5.02h4.3v4.542H77.6V73Z" transform="translate(9.574 2.813)" fill="none" stroke="#fff" stroke-miterlimit="10" stroke-width="0.3"/>
      <path id="패스_511" data-name="패스 511" d="M135.029,79.911h-5.5V78.238a3.694,3.694,0,0,0-.239-1.554.723.723,0,0,0-.717-.359.9.9,0,0,0-.837.478c-.239.239-.239.717-.239,1.315a3.166,3.166,0,0,0,.359,1.673,5.415,5.415,0,0,0,1.673,1.434c2.63,1.554,4.3,2.869,4.9,3.825a9.4,9.4,0,0,1,1.076,4.781,8.84,8.84,0,0,1-.6,3.586,3.829,3.829,0,0,1-2.152,1.913,9.48,9.48,0,0,1-3.825.837,7.585,7.585,0,0,1-4.064-.956,4.335,4.335,0,0,1-2.152-2.271A11.794,11.794,0,0,1,122.239,89V87.561h5.5v2.749a4.434,4.434,0,0,0,.239,1.673.931.931,0,0,0,.837.359.8.8,0,0,0,.837-.478,3.69,3.69,0,0,0,.239-1.315,4.449,4.449,0,0,0-.6-2.63,22.807,22.807,0,0,0-2.749-2.032,21.368,21.368,0,0,1-2.869-2.152,6.7,6.7,0,0,1-1.2-1.793A7.113,7.113,0,0,1,122,78.955a7.73,7.73,0,0,1,.717-3.825,4.822,4.822,0,0,1,2.152-1.913,7.983,7.983,0,0,1,3.586-.717,9.693,9.693,0,0,1,3.945.717,3.829,3.829,0,0,1,2.152,1.913,10.212,10.212,0,0,1,.478,3.825v.956Z" transform="translate(18.249 2.715)" fill="none" stroke="#fff" stroke-miterlimit="10" stroke-width="0.3"/>
      <path id="패스_512" data-name="패스 512" d="M175.557,73V95.712H169.7V73Z" transform="translate(27.569 2.813)" fill="none" stroke="#fff" stroke-miterlimit="10" stroke-width="0.3"/>
      <path id="패스_513" data-name="패스 513" d="M224.807,81.446H218.95V79.413a9.838,9.838,0,0,0-.12-2.391.86.86,0,0,0-.837-.478.655.655,0,0,0-.717.478,6.848,6.848,0,0,0-.239,2.152V90.052a6.483,6.483,0,0,0,.239,2.032c.12.359.359.478.837.478a.8.8,0,0,0,.837-.6,7.468,7.468,0,0,0,.239-2.152v-2.63h-1.2V83.717h6.933V95.79h-3.706l-.6-1.673a3.885,3.885,0,0,1-1.554,1.554,4.093,4.093,0,0,1-2.152.478,5.553,5.553,0,0,1-2.749-.717,4.651,4.651,0,0,1-1.913-1.793,5.239,5.239,0,0,1-.837-2.271,27.184,27.184,0,0,1-.12-3.466V81.206a21.363,21.363,0,0,1,.359-4.662,5.338,5.338,0,0,1,2.032-2.749,6.81,6.81,0,0,1,4.3-1.2,8.213,8.213,0,0,1,4.3,1.076,5,5,0,0,1,2.271,2.51,13.279,13.279,0,0,1,.478,4.3v.956Z" transform="translate(35.697 2.735)" fill="none" stroke="#fff" stroke-miterlimit="10" stroke-width="0.3"/>
      <path id="패스_514" data-name="패스 514" d="M272.449,73V95.712h-5.14L264.2,85.432v10.28h-4.9V73h4.9l3.347,10.16V73Z" transform="translate(45.075 2.813)" fill="none" stroke="#fff" stroke-miterlimit="10" stroke-width="0.3"/>
      <path id="패스_515" data-name="패스 515" d="M40.075,87l3.347,22.712H37.446l-.359-4.064H35.055l-.359,4.064H28.6L31.588,87Zm-3.108,14.583c-.239-2.51-.6-5.738-.956-9.563-.6,4.3-.956,7.531-1.076,9.563Z" transform="translate(0 5.548)" fill="none" stroke="#fff" stroke-miterlimit="10" stroke-width="0.3"/>
      <path id="패스_516" data-name="패스 516" d="M54.1,87h5.977a14.815,14.815,0,0,1,3.706.359,3.672,3.672,0,0,1,1.913,1.076,4.416,4.416,0,0,1,.837,1.673,17.005,17.005,0,0,1,.239,3.108v2.152a6.707,6.707,0,0,1-.478,3.108,3.554,3.554,0,0,1-1.673,1.554,7.721,7.721,0,0,1-3.108.478H59.957v9.085H54.1Zm5.857,3.825v5.738h.478q.9,0,1.076-.359a3.841,3.841,0,0,0,.359-1.673V92.618a2.465,2.465,0,0,0-.359-1.554C61.272,90.825,60.674,90.825,59.957,90.825Z" transform="translate(4.981 5.548)" fill="none" stroke="#fff" stroke-miterlimit="10" stroke-width="0.3"/>
      <path id="패스_517" data-name="패스 517" d="M78.3,87h5.977a14.815,14.815,0,0,1,3.706.359,3.672,3.672,0,0,1,1.913,1.076,4.416,4.416,0,0,1,.837,1.673,17.006,17.006,0,0,1,.239,3.108v2.152a6.707,6.707,0,0,1-.478,3.108,3.555,3.555,0,0,1-1.673,1.554,7.721,7.721,0,0,1-3.108.478H84.157v9.085H78.3V87Zm5.977,3.825v5.738h.478q.9,0,1.076-.359a3.842,3.842,0,0,0,.359-1.673V92.618a2.465,2.465,0,0,0-.359-1.554C85.592,90.825,84.994,90.825,84.277,90.825Z" transform="translate(9.711 5.548)" fill="none" stroke="#fff" stroke-miterlimit="10" stroke-width="0.3"/>
      <path id="패스_518" data-name="패스 518" d="M108.457,87v18.169h3.586v4.542H102.6V87Z" transform="translate(14.458 5.548)" fill="none" stroke="#fff" stroke-miterlimit="10" stroke-width="0.3"/>
      <path id="패스_519" data-name="패스 519" d="M129.757,87v22.712H123.9V87Z" transform="translate(18.62 5.548)" fill="none" stroke="#fff" stroke-miterlimit="10" stroke-width="0.3"/>
      <path id="패스_520" data-name="패스 520" d="M156.805,97.019h-5.857V93.074a6.28,6.28,0,0,0-.239-2.152.86.86,0,0,0-.837-.478c-.478,0-.837.12-.956.478a7.854,7.854,0,0,0-.239,2.271v10.519a7.468,7.468,0,0,0,.239,2.152.8.8,0,0,0,.837.478c.478,0,.717-.12.837-.478a8.263,8.263,0,0,0,.239-2.391v-2.869h5.857v.837a16.559,16.559,0,0,1-.478,5.02,6.182,6.182,0,0,1-2.152,2.63,6.639,6.639,0,0,1-4.184,1.076,9.525,9.525,0,0,1-4.3-.956,4.121,4.121,0,0,1-2.271-2.63,17.318,17.318,0,0,1-.6-5.02V94.987a30.423,30.423,0,0,1,.12-3.706,6.69,6.69,0,0,1,.956-2.391,4.932,4.932,0,0,1,2.271-1.793,7.6,7.6,0,0,1,3.347-.6,8.824,8.824,0,0,1,4.3.956,5.624,5.624,0,0,1,2.271,2.51,14.868,14.868,0,0,1,.478,4.662v2.391Z" transform="translate(22.293 5.45)" fill="none" stroke="#fff" stroke-miterlimit="10" stroke-width="0.3"/>
      <path id="패스_521" data-name="패스 521" d="M178.895,87l3.347,22.712h-5.977l-.359-4.064h-2.152l-.359,4.064h-6.1L170.288,87Zm-3.108,14.583c-.239-2.51-.6-5.738-.956-9.563-.6,4.3-.956,7.531-1.076,9.563Z" transform="translate(27.1 5.548)" fill="none" stroke="#fff" stroke-miterlimit="10" stroke-width="0.3"/>
      <path id="패스_522" data-name="패스 522" d="M203.59,87v4.542h-3.467v18.169h-5.857V91.542H190.8V87Z" transform="translate(31.691 5.548)" fill="none" stroke="#fff" stroke-miterlimit="10" stroke-width="0.3"/>
      <path id="패스_523" data-name="패스 523" d="M220.757,87v22.712H214.9V87Z" transform="translate(36.4 5.548)" fill="none" stroke="#fff" stroke-miterlimit="10" stroke-width="0.3"/>
      <path id="패스_524" data-name="패스 524" d="M247.407,100.346a46.634,46.634,0,0,1-.12,4.781,7.8,7.8,0,0,1-.956,2.63,4.28,4.28,0,0,1-2.271,1.793,9.3,9.3,0,0,1-3.347.6,9.126,9.126,0,0,1-3.227-.6,5.093,5.093,0,0,1-2.391-1.793,5.606,5.606,0,0,1-1.076-2.63c-.12-.956-.12-2.51-.12-4.9V96.4a46.633,46.633,0,0,1,.12-4.781,7.8,7.8,0,0,1,.956-2.63,4.28,4.28,0,0,1,2.271-1.793,9.3,9.3,0,0,1,3.347-.6,9.126,9.126,0,0,1,3.227.6,5.093,5.093,0,0,1,2.391,1.793,5.606,5.606,0,0,1,1.076,2.63c.12.956.12,2.51.12,4.9Zm-5.857-7.411a8.006,8.006,0,0,0-.12-2.032.655.655,0,0,0-.717-.478.723.723,0,0,0-.717.359,6.279,6.279,0,0,0-.239,2.152v10.639a9.837,9.837,0,0,0,.12,2.391.807.807,0,0,0,.717.478c.359,0,.717-.12.717-.478s.12-1.2.12-2.51V92.935Z" transform="translate(40.114 5.47)" fill="none" stroke="#fff" stroke-miterlimit="10" stroke-width="0.3"/>
      <path id="패스_525" data-name="패스 525" d="M272.449,87v22.712h-5.14L264.2,99.432v10.28h-4.9V87h4.9l3.347,10.16V87Z" transform="translate(45.075 5.548)" fill="none" stroke="#fff" stroke-miterlimit="10" stroke-width="0.3"/>
      <path id="패스_526" data-name="패스 526" d="M52.129,101,49.5,123.712H42.088q-1.076-5.2-1.793-11.834c-.239,1.913-.837,5.857-1.673,11.834H31.33L28.7,101h5.738l.6,7.889.6,7.65c.239-3.945.717-9.2,1.673-15.539h6.1c.12.717.239,3.108.6,7.531l.6,8.606c.359-5.5.837-10.878,1.673-16.137Z" transform="translate(0.02 8.283)" fill="none" stroke="#fff" stroke-miterlimit="10" stroke-width="0.3"/>
      <path id="패스_527" data-name="패스 527" d="M75.82,101h9.8v4.542H81.677v4.3h3.706v4.3H81.677v5.02h4.3v4.542H75.7V101Z" transform="translate(9.203 8.283)" fill="none" stroke="#fff" stroke-miterlimit="10" stroke-width="0.3"/>
      <path id="패스_528" data-name="패스 528" d="M112.42,101h5.857a12.473,12.473,0,0,1,4.184.478,3.7,3.7,0,0,1,2.271,1.793c.6.837.837,2.271.837,4.3a4.908,4.908,0,0,1-.6,2.749,4.064,4.064,0,0,1-2.51,1.2,4.654,4.654,0,0,1,2.749,1.554,5.868,5.868,0,0,1,.717,3.227v2.152a7.9,7.9,0,0,1-.478,3.347,3.525,3.525,0,0,1-1.673,1.554,19.227,19.227,0,0,1-4.662.359H112.3V101Zm5.857,3.825v5.02h.6c.6,0,.956-.12,1.076-.478a8.262,8.262,0,0,0,.239-2.391,3.433,3.433,0,0,0-.239-1.434,2.608,2.608,0,0,0-.478-.6A2.684,2.684,0,0,0,118.277,104.825Zm0,8.606v6.335a2.243,2.243,0,0,0,1.554-.359,2.645,2.645,0,0,0,.359-1.673v-2.152a2.837,2.837,0,0,0-.359-1.793A2.243,2.243,0,0,0,118.277,113.432Z" transform="translate(16.354 8.283)" fill="none" stroke="#fff" stroke-miterlimit="10" stroke-width="0.3"/>
      <path id="패스_529" data-name="패스 529" d="M164.729,107.911h-5.5v-1.673a3.694,3.694,0,0,0-.239-1.554.723.723,0,0,0-.717-.359.9.9,0,0,0-.837.478c-.239.239-.239.717-.239,1.315a3.166,3.166,0,0,0,.359,1.673,5.415,5.415,0,0,0,1.673,1.434c2.63,1.554,4.3,2.869,4.9,3.825a9.4,9.4,0,0,1,1.076,4.781,8.841,8.841,0,0,1-.6,3.586,3.829,3.829,0,0,1-2.152,1.913,9.48,9.48,0,0,1-3.825.837,7.585,7.585,0,0,1-4.064-.956,4.335,4.335,0,0,1-2.152-2.271,11.8,11.8,0,0,1-.478-3.945v-1.434h5.5v2.749a4.434,4.434,0,0,0,.239,1.674.931.931,0,0,0,.837.359.8.8,0,0,0,.837-.478,3.69,3.69,0,0,0,.239-1.315,4.449,4.449,0,0,0-.6-2.63,22.809,22.809,0,0,0-2.749-2.032,21.368,21.368,0,0,1-2.869-2.152,6.7,6.7,0,0,1-1.2-1.793,7.113,7.113,0,0,1-.478-2.988,7.73,7.73,0,0,1,.717-3.825,4.822,4.822,0,0,1,2.152-1.913,7.984,7.984,0,0,1,3.586-.717,9.693,9.693,0,0,1,3.945.717,3.829,3.829,0,0,1,2.152,1.913,10.211,10.211,0,0,1,.478,3.825Z" transform="translate(24.052 8.185)" fill="none" stroke="#fff" stroke-miterlimit="10" stroke-width="0.3"/>
      <path id="패스_530" data-name="패스 530" d="M197.057,101v22.712H191.2V101Z" transform="translate(31.769 8.283)" fill="none" stroke="#fff" stroke-miterlimit="10" stroke-width="0.3"/>
      <path id="패스_531" data-name="패스 531" d="M236.69,101v4.542h-3.467v18.169h-5.857V105.542H223.9V101Z" transform="translate(38.16 8.283)" fill="none" stroke="#fff" stroke-miterlimit="10" stroke-width="0.3"/>
      <path id="패스_532" data-name="패스 532" d="M262.32,101h9.8v4.542h-3.945v4.3h3.706v4.3h-3.706v5.02h4.3v4.542H262.2V101Z" transform="translate(45.642 8.283)" fill="none" stroke="#fff" stroke-miterlimit="10" stroke-width="0.3"/>
      <path id="패스_533" data-name="패스 533" d="M43.505,125.019H37.648v-3.945a6.279,6.279,0,0,0-.239-2.152.86.86,0,0,0-.837-.478c-.478,0-.837.12-.956.478a7.855,7.855,0,0,0-.239,2.271v10.519a7.468,7.468,0,0,0,.239,2.152.8.8,0,0,0,.837.478c.478,0,.717-.12.837-.478a8.262,8.262,0,0,0,.239-2.391v-2.869h5.857v.837a16.558,16.558,0,0,1-.478,5.02,6.182,6.182,0,0,1-2.152,2.63,6.639,6.639,0,0,1-4.184,1.076,9.525,9.525,0,0,1-4.3-.956A4.121,4.121,0,0,1,30,134.582a17.318,17.318,0,0,1-.6-5.02v-6.574a30.428,30.428,0,0,1,.12-3.706,6.69,6.69,0,0,1,.956-2.391,4.932,4.932,0,0,1,2.271-1.793,7.6,7.6,0,0,1,3.347-.6,8.823,8.823,0,0,1,4.3.956,5.624,5.624,0,0,1,2.271,2.51,14.868,14.868,0,0,1,.478,4.662v2.391Z" transform="translate(0.156 10.92)" fill="none" stroke="#fff" stroke-miterlimit="10" stroke-width="0.3"/>
      <path id="패스_534" data-name="패스 534" d="M120.807,128.346a46.645,46.645,0,0,1-.12,4.781,7.8,7.8,0,0,1-.956,2.63,4.28,4.28,0,0,1-2.271,1.793,9.3,9.3,0,0,1-3.347.6,9.126,9.126,0,0,1-3.227-.6,5.093,5.093,0,0,1-2.391-1.793,5.606,5.606,0,0,1-1.076-2.63c-.12-.956-.12-2.51-.12-4.9V124.4a46.645,46.645,0,0,1,.12-4.781,7.8,7.8,0,0,1,.956-2.63,4.28,4.28,0,0,1,2.271-1.793,9.3,9.3,0,0,1,3.347-.6,9.126,9.126,0,0,1,3.227.6,5.093,5.093,0,0,1,2.391,1.793,5.606,5.606,0,0,1,1.076,2.63c.12.956.12,2.51.12,4.9Zm-5.977-7.411a8.006,8.006,0,0,0-.12-2.032.655.655,0,0,0-.717-.478.723.723,0,0,0-.717.359,6.279,6.279,0,0,0-.239,2.152v10.639a9.838,9.838,0,0,0,.12,2.391.807.807,0,0,0,.717.478c.359,0,.717-.12.717-.478s.12-1.2.12-2.51V120.935Z" transform="translate(15.377 10.939)" fill="none" stroke="#fff" stroke-miterlimit="10" stroke-width="0.3"/>
      <path id="패스_535" data-name="패스 535" d="M184.7,115h4.423a28.975,28.975,0,0,1,5.738.359,4.26,4.26,0,0,1,2.271,1.315,4.549,4.549,0,0,1,.956,2.032,29.251,29.251,0,0,1,.239,4.3V130.9a26.527,26.527,0,0,1-.239,4.064,2.337,2.337,0,0,1-.956,1.554,4.159,4.159,0,0,1-1.793.837,19.266,19.266,0,0,1-3.108.239H184.82V115Zm5.977,3.825v14.942c.837,0,1.315-.12,1.554-.478a7.109,7.109,0,0,0,.239-2.749v-8.846a8,8,0,0,0-.12-2.032.841.841,0,0,0-.478-.6A2.572,2.572,0,0,0,190.677,118.825Z" transform="translate(30.5 11.017)" fill="none" stroke="#fff" stroke-miterlimit="10" stroke-width="0.3"/>
      <path id="패스_536" data-name="패스 536" d="M262.32,115h9.8v4.542h-3.945v4.3h3.706v4.3h-3.706v5.02h4.3v4.542H262.2V115Z" transform="translate(45.642 11.017)" fill="none" stroke="#fff" stroke-miterlimit="10" stroke-width="0.3"/>
      <path id="패스_537" data-name="패스 537" d="M29.7,129h5.977a14.815,14.815,0,0,1,3.706.359,3.672,3.672,0,0,1,1.913,1.076,4.416,4.416,0,0,1,.837,1.673,17,17,0,0,1,.239,3.108v2.032a6.707,6.707,0,0,1-.478,3.108,3.554,3.554,0,0,1-1.673,1.554,7.721,7.721,0,0,1-3.108.478H35.557v9.085H29.7Zm5.857,3.825v5.738h.478q.9,0,1.076-.359a3.841,3.841,0,0,0,.359-1.673v-1.913a2.465,2.465,0,0,0-.359-1.554C36.872,132.825,36.394,132.825,35.557,132.825Z" transform="translate(0.215 13.752)" fill="none" stroke="#fff" stroke-miterlimit="10" stroke-width="0.3"/>
      <path id="패스_538" data-name="패스 538" d="M57.82,129H62a28.344,28.344,0,0,1,5.618.359,3.724,3.724,0,0,1,2.391,1.673,7.72,7.72,0,0,1,.956,4.184q0,2.69-.717,3.586a3.606,3.606,0,0,1-2.63,1.076,4.459,4.459,0,0,1,2.391,1.2,2.9,2.9,0,0,1,.717,1.315,19.7,19.7,0,0,1,.12,3.347v5.977h-5.5v-7.531a7.854,7.854,0,0,0-.239-2.271c-.12-.359-.717-.478-1.554-.478v10.28H57.7V129Zm5.977,3.825v5.02a3.9,3.9,0,0,0,1.434-.239c.359-.12.359-.717.359-1.793v-1.2a2.077,2.077,0,0,0-.359-1.434A2.3,2.3,0,0,0,63.8,132.825Z" transform="translate(5.685 13.752)" fill="none" stroke="#fff" stroke-miterlimit="10" stroke-width="0.3"/>
      <path id="패스_539" data-name="패스 539" d="M100.407,137.446H94.55v-2.032a9.837,9.837,0,0,0-.12-2.391.86.86,0,0,0-.837-.478.655.655,0,0,0-.717.478,6.849,6.849,0,0,0-.239,2.152v10.878a6.482,6.482,0,0,0,.239,2.032c.12.359.359.478.837.478a.8.8,0,0,0,.837-.6,7.468,7.468,0,0,0,.239-2.152v-2.63h-1.2v-3.466h6.933V151.79H96.821l-.6-1.673a3.885,3.885,0,0,1-1.554,1.554,4.093,4.093,0,0,1-2.152.478,5.553,5.553,0,0,1-2.749-.717,4.65,4.65,0,0,1-1.913-1.793,7.4,7.4,0,0,1-.837-2.271,27.182,27.182,0,0,1-.12-3.466v-6.694a21.363,21.363,0,0,1,.359-4.662,5.338,5.338,0,0,1,2.032-2.749,6.809,6.809,0,0,1,4.3-1.2,8.213,8.213,0,0,1,4.3,1.076,5,5,0,0,1,2.271,2.51,13.279,13.279,0,0,1,.478,4.3v.956Z" transform="translate(11.391 13.674)" fill="none" stroke="#fff" stroke-miterlimit="10" stroke-width="0.3"/>
      <path id="패스_540" data-name="패스 540" d="M116.22,129H120.4a28.343,28.343,0,0,1,5.618.359,3.724,3.724,0,0,1,2.391,1.673,7.72,7.72,0,0,1,.956,4.184q0,2.69-.717,3.586a3.606,3.606,0,0,1-2.63,1.076,4.459,4.459,0,0,1,2.391,1.2,2.9,2.9,0,0,1,.717,1.315,19.7,19.7,0,0,1,.12,3.347v5.977h-5.5v-7.531a7.854,7.854,0,0,0-.239-2.271c-.12-.359-.717-.478-1.554-.478v10.28H116.1V129Zm5.977,3.825v5.02a3.9,3.9,0,0,0,1.434-.239c.359-.12.359-.717.359-1.793v-1.2a2.077,2.077,0,0,0-.359-1.434A2.3,2.3,0,0,0,122.2,132.825Z" transform="translate(17.096 13.752)" fill="none" stroke="#fff" stroke-miterlimit="10" stroke-width="0.3"/>
      <path id="패스_541" data-name="패스 541" d="M155.695,129l3.347,22.712h-5.977l-.359-4.064h-2.152l-.359,4.064h-6.1L147.088,129Zm-3.108,14.583c-.239-2.51-.6-5.738-.956-9.563-.6,4.3-.956,7.531-1.076,9.563Z" transform="translate(22.567 13.752)" fill="none" stroke="#fff" stroke-miterlimit="10" stroke-width="0.3"/>
      <path id="패스_542" data-name="패스 542" d="M191.769,129.02v22.712h-5.14v-15.3l-2.032,15.3h-3.706l-2.152-14.942v14.942H173.6V129.02h7.65c.239,1.315.478,2.988.717,4.781l.837,5.738,1.315-10.639h7.65Z" transform="translate(28.331 13.733)" fill="none" stroke="#fff" stroke-miterlimit="10" stroke-width="0.3"/>
      <path id="패스_543" data-name="패스 543" d="M212.757,129v22.712H206.9V129Z" transform="translate(34.837 13.752)" fill="none" stroke="#fff" stroke-miterlimit="10" stroke-width="0.3"/>
      <path id="패스_544" data-name="패스 544" d="M243.149,129v22.712h-5.14l-3.108-10.28v10.28H230V129h4.9l3.347,10.16V129Z" transform="translate(39.352 13.752)" fill="none" stroke="#fff" stroke-miterlimit="10" stroke-width="0.3"/>
      <path id="패스_545" data-name="패스 545" d="M272.607,137.446H266.75v-2.032a9.834,9.834,0,0,0-.12-2.391.86.86,0,0,0-.837-.478.655.655,0,0,0-.717.478,6.848,6.848,0,0,0-.239,2.152v10.878a6.482,6.482,0,0,0,.239,2.032c.12.359.359.478.837.478a.8.8,0,0,0,.837-.6,7.468,7.468,0,0,0,.239-2.152v-2.63h-1.2v-3.466h6.933V151.79h-3.706l-.6-1.673a3.885,3.885,0,0,1-1.554,1.554,4.093,4.093,0,0,1-2.152.478,5.553,5.553,0,0,1-2.749-.717,4.651,4.651,0,0,1-1.913-1.793,5.239,5.239,0,0,1-.837-2.271,27.175,27.175,0,0,1-.12-3.466v-6.694a21.367,21.367,0,0,1,.359-4.662,5.338,5.338,0,0,1,2.032-2.749,6.809,6.809,0,0,1,4.3-1.2,8.213,8.213,0,0,1,4.3,1.076,5,5,0,0,1,2.271,2.51,13.281,13.281,0,0,1,.478,4.3v.956Z" transform="translate(45.036 13.674)" fill="none" stroke="#fff" stroke-miterlimit="10" stroke-width="0.3"/>
      <path id="패스_546" data-name="패스 546" d="M43.505,153.019H37.648v-3.945a6.279,6.279,0,0,0-.239-2.152.86.86,0,0,0-.837-.478c-.478,0-.837.12-.956.478a7.854,7.854,0,0,0-.239,2.271v10.519a7.468,7.468,0,0,0,.239,2.152.8.8,0,0,0,.837.478c.478,0,.717-.12.837-.478a8.262,8.262,0,0,0,.239-2.391v-2.869h5.857v.837a16.559,16.559,0,0,1-.478,5.02,6.182,6.182,0,0,1-2.152,2.63,6.639,6.639,0,0,1-4.184,1.076,9.525,9.525,0,0,1-4.3-.956A4.121,4.121,0,0,1,30,162.582a17.318,17.318,0,0,1-.6-5.02v-6.574a30.428,30.428,0,0,1,.12-3.706,6.69,6.69,0,0,1,.956-2.391,4.932,4.932,0,0,1,2.271-1.793,7.6,7.6,0,0,1,3.347-.6,8.823,8.823,0,0,1,4.3.956,5.624,5.624,0,0,1,2.271,2.51,14.868,14.868,0,0,1,.478,4.662v2.391Z" transform="translate(0.156 16.389)" fill="#fff"/>
      <path id="패스_547" data-name="패스 547" d="M121.907,156.346a46.645,46.645,0,0,1-.12,4.781,7.8,7.8,0,0,1-.956,2.63,4.28,4.28,0,0,1-2.271,1.793,9.3,9.3,0,0,1-3.347.6,9.126,9.126,0,0,1-3.227-.6,5.093,5.093,0,0,1-2.391-1.793,5.606,5.606,0,0,1-1.076-2.63c-.12-.956-.12-2.51-.12-4.9V152.4a46.646,46.646,0,0,1,.12-4.781,7.8,7.8,0,0,1,.956-2.63,4.28,4.28,0,0,1,2.271-1.793,9.3,9.3,0,0,1,3.347-.6,9.126,9.126,0,0,1,3.227.6,5.093,5.093,0,0,1,2.391,1.793,5.606,5.606,0,0,1,1.076,2.63c.12.956.12,2.51.12,4.9Zm-5.977-7.411a8.007,8.007,0,0,0-.12-2.032.655.655,0,0,0-.717-.478.723.723,0,0,0-.717.359,6.28,6.28,0,0,0-.239,2.152v10.639a9.837,9.837,0,0,0,.12,2.391.807.807,0,0,0,.717.478c.359,0,.717-.12.717-.478s.12-1.2.12-2.51V148.935Z" transform="translate(15.592 16.409)" fill="#fff"/>
      <path id="패스_548" data-name="패스 548" d="M192.857,143v22.712H187V143Z" transform="translate(30.949 16.487)" fill="#fff"/>
      <path id="패스_549" data-name="패스 549" d="M272.449,143v22.712h-5.14l-3.108-10.28v10.28h-4.9V143h4.9l3.347,10.16V143Z" transform="translate(45.075 16.487)" fill="#fff"/>
      <path id="패스_550" data-name="패스 550" d="M43.088,157.02V172.2a27.265,27.265,0,0,1-.12,3.586,5.689,5.689,0,0,1-.956,2.152,5.014,5.014,0,0,1-2.152,1.673,8.182,8.182,0,0,1-3.227.6,8.733,8.733,0,0,1-3.586-.717,5.073,5.073,0,0,1-2.271-1.793,5.441,5.441,0,0,1-.956-2.271,49.511,49.511,0,0,1-.12-5.02V157.02h5.857v16.974a6.924,6.924,0,0,0,.12,1.913.73.73,0,0,0,1.315-.12,9.168,9.168,0,0,0,.12-2.152V156.9h5.977Z" transform="translate(0.215 19.202)" fill="none" stroke="#fff" stroke-miterlimit="10" stroke-width="0.3"/>
      <path id="패스_551" data-name="패스 551" d="M63.329,163.911h-5.5v-1.673a3.693,3.693,0,0,0-.239-1.554.723.723,0,0,0-.717-.359.9.9,0,0,0-.837.478c-.239.239-.239.717-.239,1.315a3.166,3.166,0,0,0,.359,1.673,5.415,5.415,0,0,0,1.673,1.434c2.63,1.554,4.3,2.869,4.9,3.825a9.4,9.4,0,0,1,1.076,4.781,8.84,8.84,0,0,1-.6,3.586,3.829,3.829,0,0,1-2.152,1.913,9.48,9.48,0,0,1-3.825.837,7.585,7.585,0,0,1-4.064-.956,4.335,4.335,0,0,1-2.152-2.271A11.8,11.8,0,0,1,50.539,173v-1.434h5.5v2.749a4.433,4.433,0,0,0,.239,1.673.931.931,0,0,0,.837.359.8.8,0,0,0,.837-.478,3.69,3.69,0,0,0,.239-1.315,4.449,4.449,0,0,0-.6-2.63,22.807,22.807,0,0,0-2.749-2.032,21.365,21.365,0,0,1-2.869-2.152,6.7,6.7,0,0,1-1.2-1.793,7.113,7.113,0,0,1-.478-2.988,7.73,7.73,0,0,1,.717-3.825,4.822,4.822,0,0,1,2.152-1.913,7.983,7.983,0,0,1,3.586-.717,9.693,9.693,0,0,1,3.945.717,3.829,3.829,0,0,1,2.152,1.913,10.212,10.212,0,0,1,.478,3.825v.956Z" transform="translate(4.239 19.124)" fill="none" stroke="#fff" stroke-miterlimit="10" stroke-width="0.3"/>
      <path id="패스_552" data-name="패스 552" d="M71.22,157h9.8v4.542H77.077v4.3h3.706v4.3H77.077v5.02h4.3v4.542H71.1V157Z" transform="translate(8.304 19.222)" fill="none" stroke="#fff" stroke-miterlimit="10" stroke-width="0.3"/>
      <path id="패스_553" data-name="패스 553" d="M89.12,157H93.3a28.344,28.344,0,0,1,5.618.359,3.724,3.724,0,0,1,2.391,1.673,7.72,7.72,0,0,1,.956,4.184q0,2.69-.717,3.586a3.606,3.606,0,0,1-2.63,1.076,4.459,4.459,0,0,1,2.391,1.2,2.9,2.9,0,0,1,.717,1.315,19.7,19.7,0,0,1,.12,3.347v5.977h-5.5v-7.531a7.855,7.855,0,0,0-.239-2.271c-.12-.359-.717-.478-1.554-.478v10.28H89V157Zm5.977,3.825v5.02a3.9,3.9,0,0,0,1.434-.239c.359-.12.359-.717.359-1.793v-1.2a2.077,2.077,0,0,0-.359-1.434A2.3,2.3,0,0,0,95.1,160.825Z" transform="translate(11.801 19.222)" fill="none" stroke="#fff" stroke-miterlimit="10" stroke-width="0.3"/>
      <path id="패스_554" data-name="패스 554" d="M115.977,157v22.712H110V157Z" transform="translate(15.904 19.222)" fill="none" stroke="#fff" stroke-miterlimit="10" stroke-width="0.3"/>
      <path id="패스_555" data-name="패스 555" d="M138.149,157v22.712h-5.14l-3.108-10.28v10.28H125V157h4.9l3.347,10.16V157Z" transform="translate(18.835 19.222)" fill="none" stroke="#fff" stroke-miterlimit="10" stroke-width="0.3"/>
      <path id="패스_556" data-name="패스 556" d="M158.01,157v4.542h-3.466v18.169h-5.977V161.542H145.1V157Z" transform="translate(22.762 19.222)" fill="none" stroke="#fff" stroke-miterlimit="10" stroke-width="0.3"/>
      <path id="패스_557" data-name="패스 557" d="M165,157h9.8v4.542h-3.945v4.3h3.706v4.3h-3.706v5.02h4.3v4.542H165Z" transform="translate(26.65 19.222)" fill="none" stroke="#fff" stroke-miterlimit="10" stroke-width="0.3"/>
      <path id="패스_558" data-name="패스 558" d="M182.92,157H187.1a28.344,28.344,0,0,1,5.618.359,3.724,3.724,0,0,1,2.391,1.673,7.72,7.72,0,0,1,.956,4.184q0,2.69-.717,3.586a3.606,3.606,0,0,1-2.63,1.076,4.459,4.459,0,0,1,2.391,1.2,2.9,2.9,0,0,1,.717,1.315,19.7,19.7,0,0,1,.12,3.347v5.977h-5.5v-7.531a7.856,7.856,0,0,0-.239-2.271c-.12-.359-.717-.478-1.554-.478v10.28H182.8V157Zm5.857,3.825v5.02a3.9,3.9,0,0,0,1.434-.239c.359-.12.359-.717.359-1.793v-1.2a1.437,1.437,0,0,0-1.793-1.793Z" transform="translate(30.128 19.222)" fill="none" stroke="#fff" stroke-miterlimit="10" stroke-width="0.3"/>
      <path id="패스_559" data-name="패스 559" d="M203.8,157h10.041v4.542h-4.064v4.3h3.586v4.3h-3.586v9.563H203.92V157Z" transform="translate(34.231 19.222)" fill="none" stroke="#fff" stroke-miterlimit="10" stroke-width="0.3"/>
      <path id="패스_560" data-name="패스 560" d="M231.295,157l3.347,22.712h-5.977l-.359-4.064h-2.152l-.359,4.064h-6.1L222.688,157Zm-3.108,14.583c-.239-2.51-.6-5.738-.956-9.563-.6,4.3-.956,7.531-1.076,9.563Z" transform="translate(37.338 19.222)" fill="none" stroke="#fff" stroke-miterlimit="10" stroke-width="0.3"/>
      <path id="패스_561" data-name="패스 561" d="M254.905,167.019h-5.857v-3.945a6.28,6.28,0,0,0-.239-2.152.86.86,0,0,0-.837-.478c-.478,0-.837.12-.956.478a7.856,7.856,0,0,0-.239,2.271v10.519a7.469,7.469,0,0,0,.239,2.152.8.8,0,0,0,.837.478c.478,0,.717-.12.837-.478a8.262,8.262,0,0,0,.239-2.391v-2.869h5.857v.837a16.558,16.558,0,0,1-.478,5.02,6.182,6.182,0,0,1-2.152,2.63,6.639,6.639,0,0,1-4.184,1.076,9.525,9.525,0,0,1-4.3-.956,4.121,4.121,0,0,1-2.271-2.63,17.318,17.318,0,0,1-.6-5.02v-6.574a30.428,30.428,0,0,1,.12-3.706,6.69,6.69,0,0,1,.956-2.391,4.932,4.932,0,0,1,2.271-1.793,7.6,7.6,0,0,1,3.347-.6,8.823,8.823,0,0,1,4.3.956,5.624,5.624,0,0,1,2.271,2.51,14.867,14.867,0,0,1,.478,4.662v2.391Z" transform="translate(41.461 19.124)" fill="none" stroke="#fff" stroke-miterlimit="10" stroke-width="0.3"/>
      <path id="패스_562" data-name="패스 562" d="M262.32,157h9.8v4.542h-3.945v4.3h3.706v4.3h-3.706v5.02h4.3v4.542H262.2V157Z" transform="translate(45.642 19.222)" fill="none" stroke="#fff" stroke-miterlimit="10" stroke-width="0.3"/>
      <path id="패스_563" data-name="패스 563" d="M43.088,171.02V186.2a27.266,27.266,0,0,1-.12,3.586,5.689,5.689,0,0,1-.956,2.152,5.014,5.014,0,0,1-2.152,1.673,8.182,8.182,0,0,1-3.227.6,8.734,8.734,0,0,1-3.586-.717,5.073,5.073,0,0,1-2.271-1.793,5.441,5.441,0,0,1-.956-2.271,49.511,49.511,0,0,1-.12-5.02V171.02h5.857v16.974a6.924,6.924,0,0,0,.12,1.913.73.73,0,0,0,1.315-.12,9.168,9.168,0,0,0,.12-2.152V170.9h5.977Z" transform="translate(0.215 21.937)" fill="none" stroke="#fff" stroke-miterlimit="10" stroke-width="0.3"/>
      <path id="패스_564" data-name="패스 564" d="M61.929,177.911h-5.5v-1.673a3.693,3.693,0,0,0-.239-1.554.723.723,0,0,0-.717-.359.9.9,0,0,0-.837.478c-.239.239-.239.717-.239,1.315a3.166,3.166,0,0,0,.359,1.673,5.415,5.415,0,0,0,1.673,1.434c2.63,1.554,4.3,2.869,4.9,3.825a9.4,9.4,0,0,1,1.076,4.781,8.84,8.84,0,0,1-.6,3.586,3.829,3.829,0,0,1-2.152,1.913,9.48,9.48,0,0,1-3.825.837,7.585,7.585,0,0,1-4.064-.956,4.335,4.335,0,0,1-2.152-2.271A11.8,11.8,0,0,1,49.139,187v-1.434h5.5v2.749a4.433,4.433,0,0,0,.239,1.673.931.931,0,0,0,.837.359.8.8,0,0,0,.837-.478,3.69,3.69,0,0,0,.239-1.315,4.449,4.449,0,0,0-.6-2.63,22.807,22.807,0,0,0-2.749-2.032,21.369,21.369,0,0,1-2.869-2.152,6.7,6.7,0,0,1-1.2-1.793,7.113,7.113,0,0,1-.478-2.988,7.73,7.73,0,0,1,.717-3.825,4.822,4.822,0,0,1,2.152-1.913,7.983,7.983,0,0,1,3.586-.717,9.693,9.693,0,0,1,3.945.717,3.829,3.829,0,0,1,2.152,1.913,10.212,10.212,0,0,1,.478,3.825v.956Z" transform="translate(3.965 21.859)" fill="none" stroke="#fff" stroke-miterlimit="10" stroke-width="0.3"/>
      <path id="패스_565" data-name="패스 565" d="M68.22,171h9.8v4.542H74.077v4.3h3.706v4.3H74.077v5.02h4.3v4.542H68.1V171Z" transform="translate(7.716 21.957)" fill="none" stroke="#fff" stroke-miterlimit="10" stroke-width="0.3"/>
      <path id="패스_566" data-name="패스 566" d="M84.72,171H88.9a28.343,28.343,0,0,1,5.618.359,3.724,3.724,0,0,1,2.391,1.673,7.72,7.72,0,0,1,.956,4.184q0,2.69-.717,3.586a3.606,3.606,0,0,1-2.63,1.076,4.459,4.459,0,0,1,2.391,1.2,2.9,2.9,0,0,1,.717,1.315,19.7,19.7,0,0,1,.12,3.347v5.977h-5.5v-7.531a7.854,7.854,0,0,0-.239-2.271c-.12-.359-.717-.478-1.554-.478v10.28H84.6V171Zm5.857,3.825v5.02a3.9,3.9,0,0,0,1.434-.239c.359-.12.359-.717.359-1.793v-1.2a1.437,1.437,0,0,0-1.793-1.793Z" transform="translate(10.942 21.957)" fill="none" stroke="#fff" stroke-miterlimit="10" stroke-width="0.3"/>
      <path id="패스_567" data-name="패스 567" d="M104.12,171h9.8v4.542h-3.945v4.3h3.706v4.3h-3.706v5.02h4.3v4.542H104V171Z" transform="translate(14.732 21.957)" fill="none" stroke="#fff" stroke-miterlimit="10" stroke-width="0.3"/>
      <path id="패스_568" data-name="패스 568" d="M132.749,171l-2.032,10.041,3.108,12.671h-5.5q-.9-3.407-1.793-8.248c-.12,1.434-.359,2.988-.6,4.542l-.6,3.706H119.6l2.152-12.671L119.6,171h5.738c.12.6.359,1.673.6,3.108.239,1.076.478,2.152.6,3.108L127.848,171h4.9Z" transform="translate(17.78 21.957)" fill="none" stroke="#fff" stroke-miterlimit="10" stroke-width="0.3"/>
      <path id="패스_569" data-name="패스 569" d="M138.7,171h5.977a14.814,14.814,0,0,1,3.706.359,3.672,3.672,0,0,1,1.913,1.076,4.415,4.415,0,0,1,.837,1.673,17,17,0,0,1,.239,3.108v2.032a6.707,6.707,0,0,1-.478,3.108,3.555,3.555,0,0,1-1.673,1.554,7.721,7.721,0,0,1-3.108.478h-1.554v9.085H138.7V171Zm5.857,3.825v5.738h.478q.9,0,1.076-.359a3.842,3.842,0,0,0,.359-1.673v-1.913a2.465,2.465,0,0,0-.359-1.554C145.872,174.825,145.394,174.825,144.557,174.825Z" transform="translate(21.512 21.957)" fill="none" stroke="#fff" stroke-miterlimit="10" stroke-width="0.3"/>
      <path id="패스_570" data-name="패스 570" d="M157.22,171h9.8v4.542h-3.945v4.3h3.706v4.3h-3.706v5.02h4.3v4.542H157.1V171Z" transform="translate(25.107 21.957)" fill="none" stroke="#fff" stroke-miterlimit="10" stroke-width="0.3"/>
      <path id="패스_571" data-name="패스 571" d="M173.72,171H177.9a28.343,28.343,0,0,1,5.618.359,3.724,3.724,0,0,1,2.391,1.673,7.72,7.72,0,0,1,.956,4.184q0,2.69-.717,3.586a3.606,3.606,0,0,1-2.63,1.076,4.46,4.46,0,0,1,2.391,1.2,2.9,2.9,0,0,1,.717,1.315,19.7,19.7,0,0,1,.12,3.347v5.977h-5.5v-7.531a7.854,7.854,0,0,0-.239-2.271c-.12-.359-.717-.478-1.554-.478v10.28H173.6V171Zm5.857,3.825v5.02a3.9,3.9,0,0,0,1.434-.239c.359-.12.359-.717.359-1.793v-1.2a1.437,1.437,0,0,0-1.793-1.793Z" transform="translate(28.331 21.957)" fill="none" stroke="#fff" stroke-miterlimit="10" stroke-width="0.3"/>
      <path id="패스_572" data-name="패스 572" d="M199.057,171v22.712H193.2V171Z" transform="translate(32.16 21.957)" fill="none" stroke="#fff" stroke-miterlimit="10" stroke-width="0.3"/>
      <path id="패스_573" data-name="패스 573" d="M206.62,171h9.8v4.542h-3.945v4.3h3.706v4.3h-3.706v5.02h4.3v4.542H206.5V171Z" transform="translate(34.759 21.957)" fill="none" stroke="#fff" stroke-miterlimit="10" stroke-width="0.3"/>
      <path id="패스_574" data-name="패스 574" d="M236.149,171v22.712h-5.14l-3.108-10.28v10.28H223V171h4.9l3.347,10.16V171Z" transform="translate(37.984 21.957)" fill="none" stroke="#fff" stroke-miterlimit="10" stroke-width="0.3"/>
      <path id="패스_575" data-name="패스 575" d="M256.305,181.019h-5.857v-3.945a6.28,6.28,0,0,0-.239-2.152.86.86,0,0,0-.837-.478c-.478,0-.837.12-.956.478a7.854,7.854,0,0,0-.239,2.271v10.519a7.468,7.468,0,0,0,.239,2.152.8.8,0,0,0,.837.478c.478,0,.717-.12.837-.478a8.262,8.262,0,0,0,.239-2.391v-2.869h5.857v.837a16.56,16.56,0,0,1-.478,5.02,6.181,6.181,0,0,1-2.152,2.63,6.639,6.639,0,0,1-4.184,1.076,9.525,9.525,0,0,1-4.3-.956,4.121,4.121,0,0,1-2.271-2.63,17.319,17.319,0,0,1-.6-5.02v-6.574a30.42,30.42,0,0,1,.12-3.706,6.689,6.689,0,0,1,.956-2.391,4.932,4.932,0,0,1,2.271-1.793,7.6,7.6,0,0,1,3.347-.6,8.824,8.824,0,0,1,4.3.956,5.624,5.624,0,0,1,2.271,2.51,14.867,14.867,0,0,1,.478,4.662v2.391Z" transform="translate(41.735 21.859)" fill="none" stroke="#fff" stroke-miterlimit="10" stroke-width="0.3"/>
      <path id="패스_576" data-name="패스 576" d="M262.32,171h9.8v4.542h-3.945v4.3h3.706v4.3h-3.706v5.02h4.3v4.542H262.2V171Z" transform="translate(45.642 21.957)" fill="none" stroke="#fff" stroke-miterlimit="10" stroke-width="0.3"/>
      <path id="패스_577" data-name="패스 577" d="M43.207,185v22.712H37.35v-9.563H35.557v9.563H29.7V185h5.857v8.128H37.35V185Z" transform="translate(0.215 24.691)" fill="none" stroke="#fff" stroke-miterlimit="10" stroke-width="0.3"/>
      <path id="패스_578" data-name="패스 578" d="M73.166,185l-4.3,14.464v8.248h-5.5v-8.248L59.3,185h5.379q1.255,6.634,1.434,8.965c.359-2.391.837-5.379,1.673-8.965Z" transform="translate(5.997 24.691)" fill="none" stroke="#fff" stroke-miterlimit="10" stroke-width="0.3"/>
      <path id="패스_579" data-name="패스 579" d="M89.2,185h5.977a14.815,14.815,0,0,1,3.706.359,3.672,3.672,0,0,1,1.913,1.076,4.416,4.416,0,0,1,.837,1.674,17,17,0,0,1,.239,3.108v2.032a6.707,6.707,0,0,1-.478,3.108,3.555,3.555,0,0,1-1.673,1.554,7.722,7.722,0,0,1-3.108.478H95.057v9.085H89.2V185Zm5.857,3.825v5.738h.478q.9,0,1.076-.359a3.842,3.842,0,0,0,.359-1.674v-1.913a2.465,2.465,0,0,0-.359-1.554C96.372,188.825,95.894,188.825,95.057,188.825Z" transform="translate(11.84 24.691)" fill="none" stroke="#fff" stroke-miterlimit="10" stroke-width="0.3"/>
      <path id="패스_580" data-name="패스 580" d="M118.62,185h9.8v4.542h-3.945v4.3h3.706v4.3h-3.706v5.02h4.3v4.542H118.5V185Z" transform="translate(17.565 24.691)" fill="none" stroke="#fff" stroke-miterlimit="10" stroke-width="0.3"/>
      <path id="패스_581" data-name="패스 581" d="M146,185h4.184a28.345,28.345,0,0,1,5.618.359,3.724,3.724,0,0,1,2.391,1.673,7.72,7.72,0,0,1,.956,4.184q0,2.69-.717,3.586a3.606,3.606,0,0,1-2.63,1.076,4.46,4.46,0,0,1,2.391,1.2,2.9,2.9,0,0,1,.717,1.315,19.7,19.7,0,0,1,.12,3.347v5.977h-5.5v-7.531a7.855,7.855,0,0,0-.239-2.271c-.12-.359-.717-.478-1.554-.478v10.28H146Zm5.977,3.825v5.02a3.9,3.9,0,0,0,1.434-.239c.359-.12.359-.717.359-1.793v-1.2a2.077,2.077,0,0,0-.359-1.434A2.3,2.3,0,0,0,151.977,188.825Z" transform="translate(22.938 24.691)" fill="none" stroke="#fff" stroke-miterlimit="10" stroke-width="0.3"/>
      <path id="패스_582" data-name="패스 582" d="M188.39,185v4.542h-3.466v18.169h-5.857V189.542H175.6V185Z" transform="translate(28.722 24.691)" fill="none" stroke="#fff" stroke-miterlimit="10" stroke-width="0.3"/>
      <path id="패스_583" data-name="패스 583" d="M204.82,185h9.8v4.542h-3.945v4.3h3.706v4.3h-3.706v5.02h4.3v4.542H204.7V185Z" transform="translate(34.407 24.691)" fill="none" stroke="#fff" stroke-miterlimit="10" stroke-width="0.3"/>
      <path id="패스_584" data-name="패스 584" d="M244.349,185l-2.032,10.041,3.108,12.671h-5.5q-.9-3.407-1.793-8.248c-.12,1.434-.359,2.988-.6,4.542l-.6,3.706H231.2l2.152-12.671L231.2,185h5.738c.12.6.359,1.673.6,3.108.239,1.076.478,2.152.6,3.108L239.448,185Z" transform="translate(39.586 24.691)" fill="none" stroke="#fff" stroke-miterlimit="10" stroke-width="0.3"/>
      <path id="패스_585" data-name="패스 585" d="M273.29,185v4.542h-3.466v18.169h-5.857V189.542H260.5V185Z" transform="translate(45.31 24.691)" fill="none" stroke="#fff" stroke-miterlimit="10" stroke-width="0.3"/>
      <path id="패스_586" data-name="패스 586" d="M47.869,199.02v22.712h-5.14v-15.3l-2.032,15.3H36.992L34.84,206.789v14.942H29.7V199.02h7.65c.239,1.315.478,2.988.717,4.781l.837,5.738L40.219,198.9h7.65Z" transform="translate(0.215 27.407)" fill="none" stroke="#fff" stroke-miterlimit="10" stroke-width="0.3"/>
      <path id="패스_587" data-name="패스 587" d="M63.895,199l3.347,22.712H61.265l-.359-4.064H58.755l-.359,4.064H52.3L55.288,199Zm-3.227,14.583c-.239-2.51-.6-5.738-.956-9.563-.6,4.3-.956,7.531-1.076,9.563Z" transform="translate(4.63 27.426)" fill="none" stroke="#fff" stroke-miterlimit="10" stroke-width="0.3"/>
      <path id="패스_588" data-name="패스 588" d="M86.186,199l-3.347,10.28,3.706,12.432h-6.1l-2.391-9.682v9.682H72.2V199h5.857v8.846L80.687,199Z" transform="translate(8.519 27.426)" fill="none" stroke="#fff" stroke-miterlimit="10" stroke-width="0.3"/>
      <path id="패스_589" data-name="패스 589" d="M104.988,199.02V214.2a27.267,27.267,0,0,1-.12,3.586,5.689,5.689,0,0,1-.956,2.152,5.014,5.014,0,0,1-2.152,1.673,8.182,8.182,0,0,1-3.227.6,8.734,8.734,0,0,1-3.586-.717,5.073,5.073,0,0,1-2.271-1.793,5.441,5.441,0,0,1-.956-2.271,49.505,49.505,0,0,1-.12-5.02V199.02h5.857v16.974a6.924,6.924,0,0,0,.12,1.913.73.73,0,0,0,1.315-.12,9.168,9.168,0,0,0,.12-2.152V198.9h5.977Z" transform="translate(12.309 27.407)" fill="none" stroke="#fff" stroke-miterlimit="10" stroke-width="0.3"/>
      <path id="패스_590" data-name="패스 590" d="M111.2,199h5.977a14.816,14.816,0,0,1,3.706.359,3.672,3.672,0,0,1,1.913,1.076,4.415,4.415,0,0,1,.837,1.673,17,17,0,0,1,.239,3.108v2.032a6.707,6.707,0,0,1-.478,3.108,3.555,3.555,0,0,1-1.673,1.554,7.721,7.721,0,0,1-3.108.478h-1.554v9.085H111.2V199Zm5.977,3.825v5.738h.478q.9,0,1.076-.359a3.842,3.842,0,0,0,.359-1.673v-1.913a2.465,2.465,0,0,0-.359-1.554C118.492,202.825,117.894,202.825,117.177,202.825Z" transform="translate(16.139 27.426)" fill="none" stroke="#fff" stroke-miterlimit="10" stroke-width="0.3"/>
      <path id="패스_591" data-name="패스 591" d="M135.757,199v18.169h3.586v4.542H129.9V199Z" transform="translate(19.792 27.426)" fill="none" stroke="#fff" stroke-miterlimit="10" stroke-width="0.3"/>
      <path id="패스_592" data-name="패스 592" d="M156.475,199l3.347,22.712h-5.977l-.359-4.064h-2.152l-.359,4.064H145L147.988,199Zm-3.108,14.583c-.239-2.51-.6-5.738-.956-9.563-.6,4.3-.956,7.531-1.076,9.563Z" transform="translate(22.743 27.426)" fill="none" stroke="#fff" stroke-miterlimit="10" stroke-width="0.3"/>
      <path id="패스_593" data-name="패스 593" d="M177.949,199v22.712h-5.14l-3.108-10.28v10.28h-4.9V199h4.9l3.347,10.16V199Z" transform="translate(26.611 27.426)" fill="none" stroke="#fff" stroke-miterlimit="10" stroke-width="0.3"/>
      <path id="패스_594" data-name="패스 594" d="M197.907,207.446H192.05v-2.032a9.836,9.836,0,0,0-.12-2.391.86.86,0,0,0-.837-.478.655.655,0,0,0-.717.478,6.848,6.848,0,0,0-.239,2.152v10.878a6.484,6.484,0,0,0,.239,2.032c.12.359.359.478.837.478a.8.8,0,0,0,.837-.6,7.469,7.469,0,0,0,.239-2.152v-2.63h-1.2v-3.466h6.933V221.79h-3.706l-.6-1.673a3.885,3.885,0,0,1-1.554,1.554,4.093,4.093,0,0,1-2.152.478,5.552,5.552,0,0,1-2.749-.717,4.65,4.65,0,0,1-1.913-1.793,5.24,5.24,0,0,1-.837-2.271,27.187,27.187,0,0,1-.12-3.466v-6.694a21.363,21.363,0,0,1,.359-4.662,5.338,5.338,0,0,1,2.032-2.749,6.81,6.81,0,0,1,4.3-1.2,8.213,8.213,0,0,1,4.3,1.076,5,5,0,0,1,2.271,2.51,13.28,13.28,0,0,1,.478,4.3v.956Z" transform="translate(30.441 27.348)" fill="none" stroke="#fff" stroke-miterlimit="10" stroke-width="0.3"/>
      <path id="패스_595" data-name="패스 595" d="M217.588,199.02V214.2a27.269,27.269,0,0,1-.12,3.586,5.689,5.689,0,0,1-.956,2.152,5.014,5.014,0,0,1-2.152,1.673,8.182,8.182,0,0,1-3.227.6,8.734,8.734,0,0,1-3.586-.717,5.073,5.073,0,0,1-2.271-1.793,5.442,5.442,0,0,1-.956-2.271,49.51,49.51,0,0,1-.12-5.02V199.02h5.857v16.974a6.924,6.924,0,0,0,.12,1.913.73.73,0,0,0,1.315-.12,9.168,9.168,0,0,0,.12-2.152V198.9h5.977Z" transform="translate(34.31 27.407)" fill="none" stroke="#fff" stroke-miterlimit="10" stroke-width="0.3"/>
      <path id="패스_596" data-name="패스 596" d="M234.195,199l3.347,22.712h-5.977l-.359-4.064h-2.152l-.359,4.064h-6.1L225.588,199Zm-3.108,14.583c-.239-2.51-.6-5.738-.956-9.563-.6,4.3-.956,7.531-1.076,9.563Z" transform="translate(37.906 27.426)" fill="none" stroke="#fff" stroke-miterlimit="10" stroke-width="0.3"/>
      <path id="패스_597" data-name="패스 597" d="M256.107,207.446H250.25v-2.032a9.834,9.834,0,0,0-.12-2.391.86.86,0,0,0-.837-.478.655.655,0,0,0-.717.478,6.848,6.848,0,0,0-.239,2.152v10.878a6.483,6.483,0,0,0,.239,2.032c.12.359.359.478.837.478a.8.8,0,0,0,.837-.6,7.469,7.469,0,0,0,.239-2.152v-2.63h-1.2v-3.466h6.933V221.79h-3.706l-.6-1.673a3.886,3.886,0,0,1-1.554,1.554,4.093,4.093,0,0,1-2.152.478,5.552,5.552,0,0,1-2.749-.717,4.651,4.651,0,0,1-1.913-1.793,5.239,5.239,0,0,1-.837-2.271,27.181,27.181,0,0,1-.12-3.466v-6.694a21.362,21.362,0,0,1,.359-4.662,5.338,5.338,0,0,1,2.032-2.749,6.81,6.81,0,0,1,4.3-1.2,8.213,8.213,0,0,1,4.3,1.076,5,5,0,0,1,2.271,2.51,13.281,13.281,0,0,1,.478,4.3v.956Z" transform="translate(41.813 27.348)" fill="none" stroke="#fff" stroke-miterlimit="10" stroke-width="0.3"/>
      <path id="패스_598" data-name="패스 598" d="M262.32,199h9.8v4.542h-3.945v4.3h3.706v4.3h-3.706v5.02h4.3v4.542H262.2V199Z" transform="translate(45.642 27.426)" fill="none" stroke="#fff" stroke-miterlimit="10" stroke-width="0.3"/>
      <path id="패스_599" data-name="패스 599" d="M43.505,223.019H37.648v-3.945a6.279,6.279,0,0,0-.239-2.152.86.86,0,0,0-.837-.478c-.478,0-.837.12-.956.478a7.854,7.854,0,0,0-.239,2.271v10.519a7.468,7.468,0,0,0,.239,2.152.8.8,0,0,0,.837.478c.478,0,.717-.12.837-.478a8.262,8.262,0,0,0,.239-2.391v-2.869h5.857v.837a16.559,16.559,0,0,1-.478,5.02,6.182,6.182,0,0,1-2.152,2.63,6.639,6.639,0,0,1-4.184,1.076,9.525,9.525,0,0,1-4.3-.956A4.121,4.121,0,0,1,30,232.582a17.318,17.318,0,0,1-.6-5.02v-6.574a30.428,30.428,0,0,1,.12-3.706,6.69,6.69,0,0,1,.956-2.391,4.932,4.932,0,0,1,2.271-1.793,7.6,7.6,0,0,1,3.347-.6,8.823,8.823,0,0,1,4.3.956,5.624,5.624,0,0,1,2.271,2.51,14.869,14.869,0,0,1,.478,4.662v2.391Z" transform="translate(0.156 30.064)" fill="#fff"/>
      <path id="패스_600" data-name="패스 600" d="M68.107,226.346a46.648,46.648,0,0,1-.12,4.781,7.8,7.8,0,0,1-.956,2.63,4.28,4.28,0,0,1-2.271,1.793,9.3,9.3,0,0,1-3.347.6,9.126,9.126,0,0,1-3.227-.6,5.093,5.093,0,0,1-2.391-1.793,5.606,5.606,0,0,1-1.076-2.63c-.12-.956-.12-2.51-.12-4.9V222.4a46.646,46.646,0,0,1,.12-4.781,7.8,7.8,0,0,1,.956-2.63,4.28,4.28,0,0,1,2.271-1.793,9.3,9.3,0,0,1,3.347-.6,9.126,9.126,0,0,1,3.227.6,5.093,5.093,0,0,1,2.391,1.793,5.606,5.606,0,0,1,1.076,2.63c.12.956.12,2.51.12,4.9v3.825Zm-5.977-7.411a8.007,8.007,0,0,0-.12-2.032.655.655,0,0,0-.717-.478.723.723,0,0,0-.717.359,6.28,6.28,0,0,0-.239,2.152v10.639a9.837,9.837,0,0,0,.12,2.391.807.807,0,0,0,.717.478c.359,0,.717-.12.717-.478s.12-1.2.12-2.51V218.935Z" transform="translate(5.079 30.083)" fill="#fff"/>
      <path id="패스_601" data-name="패스 601" d="M79.3,213h4.423a28.977,28.977,0,0,1,5.738.359,4.26,4.26,0,0,1,2.271,1.315,4.549,4.549,0,0,1,.956,2.032,29.251,29.251,0,0,1,.239,4.3V228.9a26.525,26.525,0,0,1-.239,4.064,2.337,2.337,0,0,1-.956,1.554,4.159,4.159,0,0,1-1.793.837,19.27,19.27,0,0,1-3.108.239H79.42V213Zm5.857,3.825v14.942c.837,0,1.315-.12,1.554-.478a7.109,7.109,0,0,0,.239-2.749v-8.846a8.006,8.006,0,0,0-.12-2.032.842.842,0,0,0-.478-.6A2.217,2.217,0,0,0,85.157,216.825Z" transform="translate(9.906 30.161)" fill="#fff"/>
      <path id="패스_602" data-name="패스 602" d="M104.22,213h9.8v4.542h-3.945v4.3h3.706v4.3h-3.706v5.02h4.3v4.542H104.1V213Z" transform="translate(14.752 30.161)" fill="#fff"/>
      <path id="패스_603" data-name="패스 603" d="M131.657,213v22.712H125.8V213Z" transform="translate(18.991 30.161)" fill="#fff"/>
      <path id="패스_604" data-name="패스 604" d="M157.449,213v22.712h-5.14l-3.108-10.28v10.28h-4.9V213h4.9l3.347,10.16V213Z" transform="translate(22.606 30.161)" fill="#fff"/>
      <path id="패스_605" data-name="패스 605" d="M181.529,219.911h-5.5v-1.673a3.693,3.693,0,0,0-.239-1.554.723.723,0,0,0-.717-.359.9.9,0,0,0-.837.478c-.239.239-.239.717-.239,1.315a3.166,3.166,0,0,0,.359,1.673,5.414,5.414,0,0,0,1.673,1.434c2.63,1.554,4.3,2.869,4.9,3.825a9.4,9.4,0,0,1,1.076,4.781,8.84,8.84,0,0,1-.6,3.586,3.829,3.829,0,0,1-2.152,1.913,9.48,9.48,0,0,1-3.825.837,7.585,7.585,0,0,1-4.064-.956,4.335,4.335,0,0,1-2.152-2.271,11.8,11.8,0,0,1-.478-3.945v-1.434h5.5v2.749a4.433,4.433,0,0,0,.239,1.673.931.931,0,0,0,.837.359.8.8,0,0,0,.837-.478,3.69,3.69,0,0,0,.239-1.315,4.449,4.449,0,0,0-.6-2.63,22.809,22.809,0,0,0-2.749-2.032,21.364,21.364,0,0,1-2.869-2.152,6.7,6.7,0,0,1-1.2-1.793,7.113,7.113,0,0,1-.478-2.988,7.73,7.73,0,0,1,.717-3.825,4.822,4.822,0,0,1,2.152-1.913,7.984,7.984,0,0,1,3.586-.717,9.693,9.693,0,0,1,3.945.717,3.829,3.829,0,0,1,2.152,1.913,10.212,10.212,0,0,1,.478,3.825v.956Z" transform="translate(27.334 30.064)" fill="#fff"/>
      <path id="패스_606" data-name="패스 606" d="M198.857,213v22.712H193V213Z" transform="translate(32.121 30.161)" fill="#fff"/>
      <path id="패스_607" data-name="패스 607" d="M225.007,221.446H219.15v-2.032a9.837,9.837,0,0,0-.12-2.391.86.86,0,0,0-.837-.478.655.655,0,0,0-.717.478,6.849,6.849,0,0,0-.239,2.152v10.878a6.483,6.483,0,0,0,.239,2.032c.12.359.359.478.837.478a.8.8,0,0,0,.837-.6,7.468,7.468,0,0,0,.239-2.152v-2.63h-1.2v-3.466h6.933V235.79h-3.706l-.6-1.673a3.886,3.886,0,0,1-1.554,1.554,4.093,4.093,0,0,1-2.152.478,5.553,5.553,0,0,1-2.749-.717,4.65,4.65,0,0,1-1.913-1.793,5.239,5.239,0,0,1-.837-2.271,27.182,27.182,0,0,1-.12-3.466v-6.694a21.364,21.364,0,0,1,.359-4.662,5.338,5.338,0,0,1,2.032-2.749,6.81,6.81,0,0,1,4.3-1.2,8.213,8.213,0,0,1,4.3,1.076,5,5,0,0,1,2.271,2.51,13.28,13.28,0,0,1,.478,4.3v.956Z" transform="translate(35.736 30.083)" fill="#fff"/>
      <path id="패스_608" data-name="패스 608" d="M249.807,213v22.712H243.95v-9.563h-1.793v9.563H236.3V213h5.857v8.128h1.793V213Z" transform="translate(40.582 30.161)" fill="#fff"/>
      <path id="패스_609" data-name="패스 609" d="M273.29,213v4.542h-3.466v18.169h-5.857V217.542H260.5V213Z" transform="translate(45.31 30.161)" fill="#fff"/>
      <path id="패스_610" data-name="패스 610" d="M43.505,237.019H37.648v-3.945a6.28,6.28,0,0,0-.239-2.152.86.86,0,0,0-.837-.478c-.478,0-.837.12-.956.478a7.855,7.855,0,0,0-.239,2.271v10.519a7.468,7.468,0,0,0,.239,2.152.8.8,0,0,0,.837.478c.478,0,.717-.12.837-.478a8.261,8.261,0,0,0,.239-2.391v-2.869h5.857v.837a16.559,16.559,0,0,1-.478,5.02,6.182,6.182,0,0,1-2.152,2.63,6.639,6.639,0,0,1-4.184,1.076,9.525,9.525,0,0,1-4.3-.956A4.121,4.121,0,0,1,30,246.582a17.318,17.318,0,0,1-.6-5.02v-6.574a30.428,30.428,0,0,1,.12-3.706,6.69,6.69,0,0,1,.956-2.391,4.932,4.932,0,0,1,2.271-1.793,7.6,7.6,0,0,1,3.347-.6,8.823,8.823,0,0,1,4.3.956,5.624,5.624,0,0,1,2.271,2.51,14.868,14.868,0,0,1,.478,4.662v2.391Z" transform="translate(0.156 32.798)" fill="none" stroke="#fff" stroke-miterlimit="10" stroke-width="0.3"/>
      <path id="패스_611" data-name="패스 611" d="M69.995,227l3.347,22.712H67.365l-.359-4.064H64.855l-.359,4.064H58.4L61.388,227Zm-3.108,14.583c-.239-2.51-.6-5.738-.956-9.563-.6,4.3-.956,7.531-1.076,9.563Z" transform="translate(5.821 32.896)" fill="none" stroke="#fff" stroke-miterlimit="10" stroke-width="0.3"/>
      <path id="패스_612" data-name="패스 612" d="M100.929,233.911h-5.5v-1.673a3.694,3.694,0,0,0-.239-1.554.723.723,0,0,0-.717-.359.9.9,0,0,0-.837.478c-.239.239-.239.717-.239,1.315a3.166,3.166,0,0,0,.359,1.673,5.415,5.415,0,0,0,1.673,1.434c2.63,1.554,4.3,2.869,4.9,3.825a9.4,9.4,0,0,1,1.076,4.781,8.84,8.84,0,0,1-.6,3.586,3.829,3.829,0,0,1-2.152,1.913,9.481,9.481,0,0,1-3.825.837,7.585,7.585,0,0,1-4.064-.956,4.335,4.335,0,0,1-2.152-2.271A11.8,11.8,0,0,1,88.139,243v-1.434h5.5v2.749a4.434,4.434,0,0,0,.239,1.673.931.931,0,0,0,.837.359.8.8,0,0,0,.837-.478,3.69,3.69,0,0,0,.239-1.315,4.449,4.449,0,0,0-.6-2.63,22.806,22.806,0,0,0-2.749-2.032,21.368,21.368,0,0,1-2.869-2.152,6.7,6.7,0,0,1-1.2-1.793,7.113,7.113,0,0,1-.478-2.988,7.73,7.73,0,0,1,.717-3.825,4.822,4.822,0,0,1,2.152-1.913,7.983,7.983,0,0,1,3.586-.717,9.693,9.693,0,0,1,3.945.717,3.829,3.829,0,0,1,2.152,1.913,10.211,10.211,0,0,1,.478,3.825Z" transform="translate(11.586 32.798)" fill="none" stroke="#fff" stroke-miterlimit="10" stroke-width="0.3"/>
      <path id="패스_613" data-name="패스 613" d="M131.205,237.019h-5.857v-3.945a6.279,6.279,0,0,0-.239-2.152.86.86,0,0,0-.837-.478c-.478,0-.837.12-.956.478a7.855,7.855,0,0,0-.239,2.271v10.519a7.468,7.468,0,0,0,.239,2.152.8.8,0,0,0,.837.478c.478,0,.717-.12.837-.478a8.262,8.262,0,0,0,.239-2.391v-2.869h5.857v.837a16.559,16.559,0,0,1-.478,5.02,6.182,6.182,0,0,1-2.152,2.63,6.639,6.639,0,0,1-4.184,1.076,9.525,9.525,0,0,1-4.3-.956,4.121,4.121,0,0,1-2.271-2.63,17.318,17.318,0,0,1-.6-5.02v-6.574a30.429,30.429,0,0,1,.12-3.706,6.69,6.69,0,0,1,.956-2.391,4.932,4.932,0,0,1,2.271-1.793,7.6,7.6,0,0,1,3.347-.6,8.823,8.823,0,0,1,4.3.956,5.624,5.624,0,0,1,2.271,2.51,14.868,14.868,0,0,1,.478,4.662v2.391Z" transform="translate(17.292 32.798)" fill="none" stroke="#fff" stroke-miterlimit="10" stroke-width="0.3"/>
      <path id="패스_614" data-name="패스 614" d="M157.695,227l3.347,22.712h-5.977l-.359-4.064h-2.152l-.359,4.064h-6.1L149.088,227Zm-3.108,14.583c-.239-2.51-.6-5.738-.956-9.563-.6,4.3-.956,7.531-1.076,9.563Z" transform="translate(22.958 32.896)" fill="none" stroke="#fff" stroke-miterlimit="10" stroke-width="0.3"/>
      <path id="패스_615" data-name="패스 615" d="M176.1,227h4.423a28.978,28.978,0,0,1,5.738.359,4.26,4.26,0,0,1,2.271,1.315,4.548,4.548,0,0,1,.956,2.032,29.246,29.246,0,0,1,.239,4.3V242.9a26.523,26.523,0,0,1-.239,4.064,2.337,2.337,0,0,1-.956,1.554,4.158,4.158,0,0,1-1.793.837,19.271,19.271,0,0,1-3.108.239H176.22V227Zm5.857,3.825v14.942c.837,0,1.315-.12,1.554-.478a7.11,7.11,0,0,0,.239-2.749v-8.846a8.007,8.007,0,0,0-.12-2.032.842.842,0,0,0-.478-.6A2.571,2.571,0,0,0,181.957,230.825Z" transform="translate(28.819 32.896)" fill="none" stroke="#fff" stroke-miterlimit="10" stroke-width="0.3"/>
      <path id="패스_616" data-name="패스 616" d="M211.857,227v22.712H206V227Z" transform="translate(34.661 32.896)" fill="none" stroke="#fff" stroke-miterlimit="10" stroke-width="0.3"/>
      <path id="패스_617" data-name="패스 617" d="M242.649,227v22.712h-5.14l-3.108-10.28v10.28h-4.9V227h4.9l3.347,10.16V227Z" transform="translate(39.254 32.896)" fill="none" stroke="#fff" stroke-miterlimit="10" stroke-width="0.3"/>
      <path id="패스_618" data-name="패스 618" d="M272.607,235.446H266.75v-2.032a9.834,9.834,0,0,0-.12-2.391.86.86,0,0,0-.837-.478.655.655,0,0,0-.717.478,6.848,6.848,0,0,0-.239,2.152v10.878a6.482,6.482,0,0,0,.239,2.032c.12.359.359.478.837.478a.8.8,0,0,0,.837-.6,7.468,7.468,0,0,0,.239-2.152v-2.63h-1.2v-3.466h6.933V249.79h-3.706l-.6-1.673a3.885,3.885,0,0,1-1.554,1.554,4.093,4.093,0,0,1-2.152.478,5.552,5.552,0,0,1-2.749-.717,4.651,4.651,0,0,1-1.913-1.793,5.24,5.24,0,0,1-.837-2.271,27.175,27.175,0,0,1-.12-3.466v-6.694a21.367,21.367,0,0,1,.359-4.662,5.338,5.338,0,0,1,2.032-2.749,6.81,6.81,0,0,1,4.3-1.2,8.213,8.213,0,0,1,4.3,1.076,5,5,0,0,1,2.271,2.51,13.281,13.281,0,0,1,.478,4.3v.956Z" transform="translate(45.036 32.818)" fill="none" stroke="#fff" stroke-miterlimit="10" stroke-width="0.3"/>
      <path id="패스_619" data-name="패스 619" d="M42.229,247.911h-5.5v-1.673a3.694,3.694,0,0,0-.239-1.554.723.723,0,0,0-.717-.359.9.9,0,0,0-.837.478c-.239.239-.239.717-.239,1.315a3.166,3.166,0,0,0,.359,1.673,5.414,5.414,0,0,0,1.673,1.434c2.63,1.554,4.3,2.869,4.9,3.825a9.4,9.4,0,0,1,1.076,4.781,8.84,8.84,0,0,1-.6,3.586,3.829,3.829,0,0,1-2.152,1.913,9.48,9.48,0,0,1-3.825.837,7.586,7.586,0,0,1-4.064-.956,4.335,4.335,0,0,1-2.152-2.271A11.8,11.8,0,0,1,29.439,257v-1.434h5.5v2.749a4.434,4.434,0,0,0,.239,1.673.931.931,0,0,0,.837.359.8.8,0,0,0,.837-.478,3.69,3.69,0,0,0,.239-1.315,4.449,4.449,0,0,0-.6-2.63,22.806,22.806,0,0,0-2.749-2.032,21.366,21.366,0,0,1-2.869-2.152,6.7,6.7,0,0,1-1.2-1.793,7.113,7.113,0,0,1-.478-2.988,7.73,7.73,0,0,1,.717-3.825,4.823,4.823,0,0,1,2.152-1.913,7.984,7.984,0,0,1,3.586-.717,9.693,9.693,0,0,1,3.945.717,3.829,3.829,0,0,1,2.152,1.913,10.212,10.212,0,0,1,.478,3.825v.956Z" transform="translate(0.117 35.533)" fill="none" stroke="#fff" stroke-miterlimit="10" stroke-width="0.3"/>
      <path id="패스_620" data-name="패스 620" d="M68.79,241v4.542H65.324v18.169H59.466V245.542H56V241Z" transform="translate(5.352 35.631)" fill="none" stroke="#fff" stroke-miterlimit="10" stroke-width="0.3"/>
      <path id="패스_621" data-name="패스 621" d="M95.766,241l-4.3,14.464v8.248h-5.5v-8.248L81.9,241h5.379q1.255,6.634,1.434,8.965c.359-2.391.837-5.379,1.673-8.965Z" transform="translate(10.414 35.631)" fill="none" stroke="#fff" stroke-miterlimit="10" stroke-width="0.3"/>
      <path id="패스_622" data-name="패스 622" d="M114.857,241v18.169h3.586v4.542H109V241Z" transform="translate(15.709 35.631)" fill="none" stroke="#fff" stroke-miterlimit="10" stroke-width="0.3"/>
      <path id="패스_623" data-name="패스 623" d="M132.72,241h9.8v4.542h-3.945v4.3h3.706v4.3h-3.706v5.02h4.3v4.542H132.6V241Z" transform="translate(20.32 35.631)" fill="none" stroke="#fff" stroke-miterlimit="10" stroke-width="0.3"/>
      <path id="패스_624" data-name="패스 624" d="M169.929,247.911h-5.5v-1.673a3.693,3.693,0,0,0-.239-1.554.723.723,0,0,0-.717-.359.9.9,0,0,0-.837.478c-.239.239-.239.717-.239,1.315a3.166,3.166,0,0,0,.359,1.673,5.415,5.415,0,0,0,1.673,1.434c2.63,1.554,4.3,2.869,4.9,3.825a9.4,9.4,0,0,1,1.076,4.781,8.841,8.841,0,0,1-.6,3.586,3.829,3.829,0,0,1-2.152,1.913,9.48,9.48,0,0,1-3.825.837,7.586,7.586,0,0,1-4.064-.956,4.335,4.335,0,0,1-2.152-2.271,11.8,11.8,0,0,1-.478-3.945v-1.434h5.5v2.749a4.434,4.434,0,0,0,.239,1.673.931.931,0,0,0,.837.359.8.8,0,0,0,.837-.478,3.69,3.69,0,0,0,.239-1.315,4.449,4.449,0,0,0-.6-2.63,22.807,22.807,0,0,0-2.749-2.032,21.365,21.365,0,0,1-2.869-2.152,6.7,6.7,0,0,1-1.2-1.793,7.112,7.112,0,0,1-.478-2.988,7.73,7.73,0,0,1,.717-3.825,4.823,4.823,0,0,1,2.152-1.913,7.984,7.984,0,0,1,3.586-.717,9.693,9.693,0,0,1,3.945.717,3.829,3.829,0,0,1,2.152,1.913,10.211,10.211,0,0,1,.478,3.825v.956Z" transform="translate(25.068 35.533)" fill="none" stroke="#fff" stroke-miterlimit="10" stroke-width="0.3"/>
      <path id="패스_625" data-name="패스 625" d="M197.907,241v22.712H192.05v-9.563h-1.793v9.563H184.4V241h5.857v8.128h1.793V241Z" transform="translate(30.441 35.631)" fill="none" stroke="#fff" stroke-miterlimit="10" stroke-width="0.3"/>
      <path id="패스_626" data-name="패스 626" d="M212.32,241h9.8v4.542h-3.945v4.3h3.706v4.3h-3.706v5.02h4.3v4.542H212.2V241Z" transform="translate(35.873 35.631)" fill="none" stroke="#fff" stroke-miterlimit="10" stroke-width="0.3"/>
      <path id="패스_627" data-name="패스 627" d="M236.92,241h9.8v4.542h-3.945v4.3h3.706v4.3h-3.706v5.02h4.3v4.542H236.8V241Z" transform="translate(40.68 35.631)" fill="none" stroke="#fff" stroke-miterlimit="10" stroke-width="0.3"/>
      <path id="패스_628" data-name="패스 628" d="M273.29,241v4.542h-3.466v18.169h-5.857V245.542H260.5V241Z" transform="translate(45.31 35.631)" fill="none" stroke="#fff" stroke-miterlimit="10" stroke-width="0.3"/>
      <path id="패스_629" data-name="패스 629" d="M37.048,255v15.181a37.655,37.655,0,0,1-.12,4.423,3.557,3.557,0,0,1-.6,1.793,3.036,3.036,0,0,1-1.554,1.076,9.146,9.146,0,0,1-2.988.359H28.8v-3.945h.717a1.177,1.177,0,0,0,.956-.359,2.5,2.5,0,0,0,.478-.717,8.185,8.185,0,0,0,0-1.793V255Z" transform="translate(0.039 38.366)" fill="none" stroke="#fff" stroke-miterlimit="10" stroke-width="0.3"/>
      <path id="패스_630" data-name="패스 630" d="M62.495,255l3.347,22.712H59.865l-.359-4.064H57.355L57,277.712H50.9L53.888,255Zm-3.108,14.583c-.239-2.51-.6-5.738-.956-9.563-.6,4.3-.956,7.531-1.076,9.563Z" transform="translate(4.356 38.366)" fill="none" stroke="#fff" stroke-miterlimit="10" stroke-width="0.3"/>
      <path id="패스_631" data-name="패스 631" d="M92.42,255l-2.988,22.712H80.467L77,255h6.216c.717,6.216,1.2,11.475,1.554,15.9.359-4.423.6-8.248.956-11.595l.359-4.184H92.42Z" transform="translate(9.457 38.366)" fill="none" stroke="#fff" stroke-miterlimit="10" stroke-width="0.3"/>
      <path id="패스_632" data-name="패스 632" d="M115.295,255l3.347,22.712h-5.977l-.359-4.064h-2.152l-.359,4.064h-6.1L106.688,255Zm-3.108,14.583c-.239-2.51-.6-5.738-.956-9.563-.6,4.3-.956,7.531-1.076,9.563Z" transform="translate(14.673 38.366)" fill="none" stroke="#fff" stroke-miterlimit="10" stroke-width="0.3"/>
      <path id="패스_633" data-name="패스 633" d="M144.029,261.911h-5.5v-1.673a3.693,3.693,0,0,0-.239-1.554.723.723,0,0,0-.717-.359.9.9,0,0,0-.837.478c-.239.239-.239.717-.239,1.315a3.166,3.166,0,0,0,.359,1.673,5.416,5.416,0,0,0,1.673,1.434c2.63,1.554,4.3,2.869,4.9,3.825a9.4,9.4,0,0,1,1.076,4.781,8.84,8.84,0,0,1-.6,3.586,3.829,3.829,0,0,1-2.152,1.913,9.481,9.481,0,0,1-3.825.837,7.586,7.586,0,0,1-4.064-.956,4.335,4.335,0,0,1-2.152-2.271,11.8,11.8,0,0,1-.478-3.945v-1.434h5.5v2.749a4.433,4.433,0,0,0,.239,1.673.931.931,0,0,0,.837.359.8.8,0,0,0,.837-.478,3.69,3.69,0,0,0,.239-1.315,4.45,4.45,0,0,0-.6-2.63,22.821,22.821,0,0,0-2.749-2.032,21.369,21.369,0,0,1-2.869-2.152,6.7,6.7,0,0,1-1.2-1.793,7.113,7.113,0,0,1-.478-2.988,7.73,7.73,0,0,1,.717-3.825,4.822,4.822,0,0,1,2.152-1.913,7.984,7.984,0,0,1,3.586-.717,9.693,9.693,0,0,1,3.945.717,3.829,3.829,0,0,1,2.152,1.913,10.212,10.212,0,0,1,.478,3.825v.956Z" transform="translate(20.007 38.268)" fill="none" stroke="#fff" stroke-miterlimit="10" stroke-width="0.3"/>
      <path id="패스_634" data-name="패스 634" d="M172.105,265.019h-5.857v-3.945a6.279,6.279,0,0,0-.239-2.152.86.86,0,0,0-.837-.478c-.478,0-.837.12-.956.478a7.854,7.854,0,0,0-.239,2.271v10.519a7.469,7.469,0,0,0,.239,2.152.8.8,0,0,0,.837.478c.478,0,.717-.12.837-.478a8.263,8.263,0,0,0,.239-2.391v-2.869h5.857v.837a16.561,16.561,0,0,1-.478,5.02,6.183,6.183,0,0,1-2.152,2.63,6.639,6.639,0,0,1-4.184,1.076,9.525,9.525,0,0,1-4.3-.956,4.121,4.121,0,0,1-2.271-2.63,17.319,17.319,0,0,1-.6-5.02v-6.574a30.42,30.42,0,0,1,.12-3.706,6.69,6.69,0,0,1,.956-2.391,4.932,4.932,0,0,1,2.271-1.793,7.6,7.6,0,0,1,3.347-.6,8.824,8.824,0,0,1,4.3.956,5.624,5.624,0,0,1,2.271,2.51,14.868,14.868,0,0,1,.478,4.662v2.391Z" transform="translate(25.283 38.268)" fill="none" stroke="#fff" stroke-miterlimit="10" stroke-width="0.3"/>
      <path id="패스_635" data-name="패스 635" d="M186,255h4.184a28.349,28.349,0,0,1,5.618.359,3.725,3.725,0,0,1,2.391,1.674,7.72,7.72,0,0,1,.956,4.184q0,2.69-.717,3.586a3.606,3.606,0,0,1-2.63,1.076,4.46,4.46,0,0,1,2.391,1.2,2.9,2.9,0,0,1,.717,1.315,19.7,19.7,0,0,1,.12,3.347v5.977h-5.5v-7.531a7.854,7.854,0,0,0-.239-2.271c-.119-.359-.717-.478-1.554-.478v10.28H186Zm5.977,3.825v5.02a3.9,3.9,0,0,0,1.434-.239c.359-.12.359-.717.359-1.793v-1.2a2.077,2.077,0,0,0-.359-1.434A2.3,2.3,0,0,0,191.977,258.825Z" transform="translate(30.754 38.366)" fill="none" stroke="#fff" stroke-miterlimit="10" stroke-width="0.3"/>
      <path id="패스_636" data-name="패스 636" d="M219.257,255v22.712H213.4V255Z" transform="translate(36.107 38.366)" fill="none" stroke="#fff" stroke-miterlimit="10" stroke-width="0.3"/>
      <path id="패스_637" data-name="패스 637" d="M234.7,255h5.977a14.818,14.818,0,0,1,3.706.359,3.672,3.672,0,0,1,1.913,1.076,4.416,4.416,0,0,1,.837,1.673,17,17,0,0,1,.239,3.108v2.032a6.707,6.707,0,0,1-.478,3.108,3.554,3.554,0,0,1-1.673,1.554,7.721,7.721,0,0,1-3.108.478h-1.554v9.085H234.7V255Zm5.977,3.825v5.738h.478q.9,0,1.076-.359a3.841,3.841,0,0,0,.359-1.673v-1.913a2.465,2.465,0,0,0-.359-1.554C241.992,258.825,241.394,258.825,240.677,258.825Z" transform="translate(40.27 38.366)" fill="none" stroke="#fff" stroke-miterlimit="10" stroke-width="0.3"/>
      <path id="패스_638" data-name="패스 638" d="M273.29,255v4.542h-3.466v18.169h-5.857V259.542H260.5V255Z" transform="translate(45.31 38.366)" fill="none" stroke="#fff" stroke-miterlimit="10" stroke-width="0.3"/>
      <path id="패스_639" data-name="패스 639" d="M42.229,275.911h-5.5v-1.673a3.693,3.693,0,0,0-.239-1.554.723.723,0,0,0-.717-.359.9.9,0,0,0-.837.478c-.239.239-.239.717-.239,1.315a3.166,3.166,0,0,0,.359,1.673,5.415,5.415,0,0,0,1.673,1.434c2.63,1.554,4.3,2.869,4.9,3.825a9.4,9.4,0,0,1,1.076,4.781,8.84,8.84,0,0,1-.6,3.586,3.829,3.829,0,0,1-2.152,1.913,9.48,9.48,0,0,1-3.825.837,7.586,7.586,0,0,1-4.064-.956,4.335,4.335,0,0,1-2.152-2.271A11.8,11.8,0,0,1,29.439,285v-1.434h5.5v2.749a4.434,4.434,0,0,0,.239,1.674.931.931,0,0,0,.837.359.8.8,0,0,0,.837-.478,3.69,3.69,0,0,0,.239-1.315,4.449,4.449,0,0,0-.6-2.63,22.813,22.813,0,0,0-2.749-2.032,21.366,21.366,0,0,1-2.869-2.152,6.7,6.7,0,0,1-1.2-1.793,7.113,7.113,0,0,1-.478-2.988,7.73,7.73,0,0,1,.717-3.825,4.822,4.822,0,0,1,2.152-1.913,7.984,7.984,0,0,1,3.586-.717,9.694,9.694,0,0,1,3.945.717,3.829,3.829,0,0,1,2.152,1.913,10.212,10.212,0,0,1,.478,3.825v.956Z" transform="translate(0.117 41.003)" fill="none" stroke="#fff" stroke-miterlimit="10" stroke-width="0.3"/>
      <path id="패스_640" data-name="패스 640" d="M110.229,269l-2.63,22.712h-7.411q-1.076-5.2-1.793-11.834c-.239,1.913-.837,5.857-1.673,11.834H89.43L86.8,269h5.738l.6,7.889.6,7.65c.239-3.945.717-9.2,1.673-15.54h6.1c.12.717.239,3.108.6,7.531l.6,8.607c.359-5.5.837-10.878,1.673-16.137Z" transform="translate(11.372 41.1)" fill="none" stroke="#fff" stroke-miterlimit="10" stroke-width="0.3"/>
      <path id="패스_641" data-name="패스 641" d="M159.057,269v22.712H153.2V269Z" transform="translate(24.345 41.1)" fill="none" stroke="#fff" stroke-miterlimit="10" stroke-width="0.3"/>
      <path id="패스_642" data-name="패스 642" d="M205.9,269h10.041v4.542h-4.064v4.3h3.586v4.3h-3.586v9.563H206.02V269Z" transform="translate(34.642 41.1)" fill="none" stroke="#fff" stroke-miterlimit="10" stroke-width="0.3"/>
      <path id="패스_643" data-name="패스 643" d="M273.29,269v4.542h-3.466v18.169h-5.857V273.542H260.5V269Z" transform="translate(45.31 41.1)" fill="none" stroke="#fff" stroke-miterlimit="10" stroke-width="0.3"/>
      <path id="패스_644" data-name="패스 644" d="M29.72,283H33.9a28.344,28.344,0,0,1,5.618.359,3.724,3.724,0,0,1,2.391,1.673,7.72,7.72,0,0,1,.956,4.184q0,2.69-.717,3.586a3.606,3.606,0,0,1-2.63,1.076,4.459,4.459,0,0,1,2.391,1.2,2.9,2.9,0,0,1,.717,1.315,19.7,19.7,0,0,1,.12,3.347v5.977h-5.5v-7.531a7.854,7.854,0,0,0-.239-2.271c-.12-.359-.717-.478-1.554-.478v10.28H29.6V283Zm5.857,3.825v5.02a3.9,3.9,0,0,0,1.434-.239c.359-.12.359-.717.359-1.793v-1.2a2.077,2.077,0,0,0-.359-1.434A2.077,2.077,0,0,0,35.577,286.825Z" transform="translate(0.195 43.835)" fill="none" stroke="#fff" stroke-miterlimit="10" stroke-width="0.3"/>
      <path id="패스_645" data-name="패스 645" d="M88.4,283h9.8v4.542H94.257v4.3h3.706v4.3H94.257v5.02H98.68v4.542H88.4Z" transform="translate(11.684 43.835)" fill="none" stroke="#fff" stroke-miterlimit="10" stroke-width="0.3"/>
      <path id="패스_646" data-name="패스 646" d="M154.595,283l3.347,22.712h-5.977l-.359-4.064h-2.152l-.359,4.064H143L145.988,283Zm-3.108,14.583c-.239-2.51-.6-5.738-.956-9.563-.6,4.3-.956,7.531-1.076,9.563Z" transform="translate(22.352 43.835)" fill="none" stroke="#fff" stroke-miterlimit="10" stroke-width="0.3"/>
      <path id="패스_647" data-name="패스 647" d="M216.005,293.019h-5.857v-3.945a6.28,6.28,0,0,0-.239-2.152.86.86,0,0,0-.837-.478c-.478,0-.837.12-.956.478a7.853,7.853,0,0,0-.239,2.271v10.519a7.468,7.468,0,0,0,.239,2.152.8.8,0,0,0,.837.478c.478,0,.717-.12.837-.478a8.261,8.261,0,0,0,.239-2.391v-2.869h5.857v.837a16.561,16.561,0,0,1-.478,5.02,6.182,6.182,0,0,1-2.152,2.63,6.639,6.639,0,0,1-4.184,1.076,9.525,9.525,0,0,1-4.3-.956,4.121,4.121,0,0,1-2.271-2.63,17.319,17.319,0,0,1-.6-5.02v-6.574a30.424,30.424,0,0,1,.12-3.706,6.69,6.69,0,0,1,.956-2.391,4.932,4.932,0,0,1,2.271-1.793,7.6,7.6,0,0,1,3.347-.6,8.824,8.824,0,0,1,4.3.956,5.624,5.624,0,0,1,2.271,2.51,14.869,14.869,0,0,1,.478,4.662v2.391Z" transform="translate(33.86 43.738)" fill="none" stroke="#fff" stroke-miterlimit="10" stroke-width="0.3"/>
      <path id="패스_648" data-name="패스 648" d="M273.29,283v4.542h-3.466v18.169h-5.857V287.542H260.5V283Z" transform="translate(45.31 43.835)" fill="none" stroke="#fff" stroke-miterlimit="10" stroke-width="0.3"/>
      <path id="패스_649" data-name="패스 649" d="M29.7,297h9.921v4.542H35.557v4.3h3.586v4.3H35.557v9.563H29.7Z" transform="translate(0.215 46.57)" fill="none" stroke="#fff" stroke-miterlimit="10" stroke-width="0.3"/>
      <path id="패스_650" data-name="패스 650" d="M72.757,297v18.169h3.586v4.542H66.9V297Z" transform="translate(7.482 46.57)" fill="none" stroke="#fff" stroke-miterlimit="10" stroke-width="0.3"/>
      <path id="패스_651" data-name="패스 651" d="M116.988,297.02V312.2a27.265,27.265,0,0,1-.12,3.586,5.688,5.688,0,0,1-.956,2.152,5.014,5.014,0,0,1-2.152,1.673,8.182,8.182,0,0,1-3.227.6,8.734,8.734,0,0,1-3.586-.717,5.073,5.073,0,0,1-2.271-1.793,5.441,5.441,0,0,1-.956-2.271,49.508,49.508,0,0,1-.12-5.02V297.02h5.857v16.974a6.925,6.925,0,0,0,.12,1.913.73.73,0,0,0,1.315-.12,9.167,9.167,0,0,0,.12-2.152V296.9h5.977Z" transform="translate(14.654 46.551)" fill="none" stroke="#fff" stroke-miterlimit="10" stroke-width="0.3"/>
      <path id="패스_652" data-name="패스 652" d="M156.39,297v4.542h-3.467v18.169h-5.857V301.542H143.6V297Z" transform="translate(22.469 46.57)" fill="none" stroke="#fff" stroke-miterlimit="10" stroke-width="0.3"/>
      <path id="패스_653" data-name="패스 653" d="M195.09,297v4.542h-3.466v18.169h-5.857V301.542H182.3V297Z" transform="translate(30.031 46.57)" fill="none" stroke="#fff" stroke-miterlimit="10" stroke-width="0.3"/>
      <path id="패스_654" data-name="패스 654" d="M221.82,297h9.8v4.542h-3.945v4.3h3.706v4.3h-3.706v5.02h4.3v4.542H221.7V297Z" transform="translate(37.729 46.57)" fill="none" stroke="#fff" stroke-miterlimit="10" stroke-width="0.3"/>
      <path id="패스_655" data-name="패스 655" d="M259.42,297H263.6a28.347,28.347,0,0,1,5.618.359,3.724,3.724,0,0,1,2.391,1.673,7.72,7.72,0,0,1,.956,4.184q0,2.689-.717,3.586a3.606,3.606,0,0,1-2.63,1.076,4.459,4.459,0,0,1,2.391,1.2,2.9,2.9,0,0,1,.717,1.315,19.7,19.7,0,0,1,.12,3.347v5.977h-5.5v-7.531a7.855,7.855,0,0,0-.239-2.271c-.12-.359-.717-.478-1.554-.478v10.28H259.3V297Zm5.857,3.825v5.02a3.9,3.9,0,0,0,1.434-.239c.359-.12.359-.717.359-1.793v-1.2a1.437,1.437,0,0,0-1.793-1.793Z" transform="translate(45.075 46.57)" fill="none" stroke="#fff" stroke-miterlimit="10" stroke-width="0.3"/>
      <path id="패스_656" data-name="패스 656" d="M40.075,311l3.347,22.712H37.446l-.359-4.064H35.055l-.359,4.064H28.6L31.588,311Zm-3.108,14.583c-.239-2.51-.6-5.738-.956-9.563-.6,4.3-.956,7.531-1.076,9.563Z" transform="translate(0 49.305)" fill="none" stroke="#fff" stroke-miterlimit="10" stroke-width="0.3"/>
      <path id="패스_657" data-name="패스 657" d="M62.349,311v22.712h-5.14L54.1,323.432v10.28H49.2V311h4.9l3.347,10.16V311Z" transform="translate(4.024 49.305)" fill="none" stroke="#fff" stroke-miterlimit="10" stroke-width="0.3"/>
      <path id="패스_658" data-name="패스 658" d="M69.5,311h4.423a28.976,28.976,0,0,1,5.738.359,4.26,4.26,0,0,1,2.271,1.315,4.548,4.548,0,0,1,.956,2.032,29.253,29.253,0,0,1,.239,4.3V326.9a26.527,26.527,0,0,1-.239,4.064,2.337,2.337,0,0,1-.956,1.554,4.16,4.16,0,0,1-1.793.837,19.27,19.27,0,0,1-3.108.239H69.62V311Zm5.977,3.825v14.942c.837,0,1.315-.12,1.554-.478a7.109,7.109,0,0,0,.239-2.749v-8.846a8.007,8.007,0,0,0-.12-2.032.842.842,0,0,0-.478-.6A2.571,2.571,0,0,0,75.477,314.825Z" transform="translate(7.991 49.305)" fill="none" stroke="#fff" stroke-miterlimit="10" stroke-width="0.3"/>
      <path id="패스_659" data-name="패스 659" d="M90.12,311H94.3a28.344,28.344,0,0,1,5.618.359,3.724,3.724,0,0,1,2.391,1.673,7.72,7.72,0,0,1,.956,4.184q0,2.69-.717,3.586a3.606,3.606,0,0,1-2.63,1.076,4.459,4.459,0,0,1,2.391,1.2,2.9,2.9,0,0,1,.717,1.315,19.7,19.7,0,0,1,.12,3.347v5.977h-5.5v-7.531a7.854,7.854,0,0,0-.239-2.271c-.12-.359-.717-.478-1.554-.478v10.28H90V311Zm5.977,3.825v5.02a3.9,3.9,0,0,0,1.434-.239c.359-.12.359-.717.359-1.793v-1.2a2.077,2.077,0,0,0-.359-1.434A2.3,2.3,0,0,0,96.1,314.825Z" transform="translate(11.997 49.305)" fill="none" stroke="#fff" stroke-miterlimit="10" stroke-width="0.3"/>
      <path id="패스_660" data-name="패스 660" d="M123.907,324.346a46.653,46.653,0,0,1-.12,4.781,7.8,7.8,0,0,1-.956,2.63,4.28,4.28,0,0,1-2.271,1.793,9.3,9.3,0,0,1-3.347.6,9.127,9.127,0,0,1-3.227-.6,5.093,5.093,0,0,1-2.391-1.793,5.606,5.606,0,0,1-1.076-2.63c-.12-.956-.12-2.51-.12-4.9V320.4a46.645,46.645,0,0,1,.12-4.781,7.8,7.8,0,0,1,.956-2.63,4.28,4.28,0,0,1,2.271-1.793,9.3,9.3,0,0,1,3.347-.6,9.127,9.127,0,0,1,3.227.6,5.092,5.092,0,0,1,2.391,1.793,5.606,5.606,0,0,1,1.076,2.63c.12.956.12,2.51.12,4.9Zm-5.977-7.411a8.008,8.008,0,0,0-.12-2.032.655.655,0,0,0-.717-.478.723.723,0,0,0-.717.359,6.279,6.279,0,0,0-.239,2.152v10.639a9.837,9.837,0,0,0,.12,2.391.807.807,0,0,0,.717.478c.359,0,.717-.12.717-.478s.12-1.2.12-2.51V316.935Z" transform="translate(15.983 49.227)" fill="none" stroke="#fff" stroke-miterlimit="10" stroke-width="0.3"/>
      <path id="패스_661" data-name="패스 661" d="M136.757,311v22.712H130.9V311Z" transform="translate(19.988 49.305)" fill="none" stroke="#fff" stroke-miterlimit="10" stroke-width="0.3"/>
      <path id="패스_662" data-name="패스 662" d="M145.1,311h4.423a28.976,28.976,0,0,1,5.738.359,4.26,4.26,0,0,1,2.271,1.315,4.548,4.548,0,0,1,.956,2.032,29.25,29.25,0,0,1,.239,4.3V326.9a26.525,26.525,0,0,1-.239,4.064,2.337,2.337,0,0,1-.956,1.554,4.16,4.16,0,0,1-1.793.837,19.27,19.27,0,0,1-3.108.239H145.22V311Zm5.857,3.825v14.942c.837,0,1.315-.12,1.554-.478a7.11,7.11,0,0,0,.239-2.749v-8.846a8.008,8.008,0,0,0-.12-2.032.842.842,0,0,0-.478-.6A2.217,2.217,0,0,0,150.957,314.825Z" transform="translate(22.762 49.305)" fill="none" stroke="#fff" stroke-miterlimit="10" stroke-width="0.3"/>
      <path id="패스_663" data-name="패스 663" d="M178.329,317.911h-5.5v-1.673a3.693,3.693,0,0,0-.239-1.554.723.723,0,0,0-.717-.359.9.9,0,0,0-.837.478c-.239.239-.239.717-.239,1.315a3.166,3.166,0,0,0,.359,1.673,5.416,5.416,0,0,0,1.673,1.434c2.63,1.554,4.3,2.869,4.9,3.825a9.4,9.4,0,0,1,1.076,4.781,8.84,8.84,0,0,1-.6,3.586,3.829,3.829,0,0,1-2.152,1.913,9.481,9.481,0,0,1-3.825.837,7.586,7.586,0,0,1-4.064-.956,4.335,4.335,0,0,1-2.152-2.271,11.8,11.8,0,0,1-.478-3.945v-1.434h5.5v2.749a4.433,4.433,0,0,0,.239,1.673.931.931,0,0,0,.837.359.8.8,0,0,0,.837-.478,3.691,3.691,0,0,0,.239-1.315,4.449,4.449,0,0,0-.6-2.63,22.811,22.811,0,0,0-2.749-2.032,21.366,21.366,0,0,1-2.869-2.152,6.7,6.7,0,0,1-1.2-1.793,7.113,7.113,0,0,1-.478-2.988,7.73,7.73,0,0,1,.717-3.825,4.822,4.822,0,0,1,2.152-1.913,7.983,7.983,0,0,1,3.586-.717,9.693,9.693,0,0,1,3.945.717,3.829,3.829,0,0,1,2.152,1.913,10.211,10.211,0,0,1,.478,3.825Z" transform="translate(26.709 49.207)" fill="none" stroke="#fff" stroke-miterlimit="10" stroke-width="0.3"/>
      <path id="패스_664" data-name="패스 664" d="M197.49,311v4.542h-3.466v18.169h-5.857V315.542H184.7V311Z" transform="translate(30.5 49.305)" fill="none" stroke="#fff" stroke-miterlimit="10" stroke-width="0.3"/>
      <path id="패스_665" data-name="패스 665" d="M217.288,311.02V326.2a27.256,27.256,0,0,1-.12,3.586,5.688,5.688,0,0,1-.956,2.152,5.015,5.015,0,0,1-2.152,1.673,8.181,8.181,0,0,1-3.227.6,8.733,8.733,0,0,1-3.586-.717,5.074,5.074,0,0,1-2.271-1.793,5.441,5.441,0,0,1-.956-2.271,49.516,49.516,0,0,1-.12-5.02V311.02h5.857v16.974a6.925,6.925,0,0,0,.12,1.913.73.73,0,0,0,1.315-.12,9.17,9.17,0,0,0,.12-2.152V310.9h5.977Z" transform="translate(34.251 49.285)" fill="none" stroke="#fff" stroke-miterlimit="10" stroke-width="0.3"/>
      <path id="패스_666" data-name="패스 666" d="M224.3,311h4.423a28.976,28.976,0,0,1,5.738.359,4.26,4.26,0,0,1,2.271,1.315,4.548,4.548,0,0,1,.956,2.032,29.25,29.25,0,0,1,.239,4.3V326.9a26.523,26.523,0,0,1-.239,4.064,2.337,2.337,0,0,1-.956,1.554,4.16,4.16,0,0,1-1.793.837,19.27,19.27,0,0,1-3.108.239H224.42V311Zm5.977,3.825v14.942c.837,0,1.315-.12,1.554-.478a7.11,7.11,0,0,0,.239-2.749v-8.846a8.007,8.007,0,0,0-.12-2.032.842.842,0,0,0-.478-.6A2.572,2.572,0,0,0,230.277,314.825Z" transform="translate(38.238 49.305)" fill="none" stroke="#fff" stroke-miterlimit="10" stroke-width="0.3"/>
      <path id="패스_667" data-name="패스 667" d="M250.857,311v22.712H245V311Z" transform="translate(42.282 49.305)" fill="none" stroke="#fff" stroke-miterlimit="10" stroke-width="0.3"/>
      <path id="패스_668" data-name="패스 668" d="M272.607,324.346a46.647,46.647,0,0,1-.12,4.781,7.8,7.8,0,0,1-.956,2.63,4.28,4.28,0,0,1-2.271,1.793,9.3,9.3,0,0,1-3.347.6,9.127,9.127,0,0,1-3.227-.6,5.092,5.092,0,0,1-2.391-1.793,5.606,5.606,0,0,1-1.076-2.63c-.12-.956-.12-2.51-.12-4.9V320.4a46.634,46.634,0,0,1,.12-4.781,7.8,7.8,0,0,1,.956-2.63,4.28,4.28,0,0,1,2.271-1.793,9.3,9.3,0,0,1,3.347-.6,9.127,9.127,0,0,1,3.227.6,5.092,5.092,0,0,1,2.391,1.793,5.606,5.606,0,0,1,1.076,2.63c.12.956.12,2.51.12,4.9Zm-5.857-7.411a8,8,0,0,0-.12-2.032.655.655,0,0,0-.717-.478.723.723,0,0,0-.717.359,6.279,6.279,0,0,0-.239,2.152v10.639a9.837,9.837,0,0,0,.12,2.391.807.807,0,0,0,.717.478c.359,0,.717-.12.717-.478s.12-1.2.12-2.51V316.935Z" transform="translate(45.036 49.227)" fill="none" stroke="#fff" stroke-miterlimit="10" stroke-width="0.3"/>
      <path id="패스_669" data-name="패스 669" d="M41.849,325l-2.032,10.041,3.108,12.671h-5.5q-.9-3.407-1.793-8.248c-.12,1.434-.359,2.988-.6,4.542l-.6,3.706H28.7l2.152-12.671L28.7,325h5.738c.12.6.359,1.673.6,3.108.239,1.076.478,2.152.6,3.108L36.948,325Z" transform="translate(0.02 52.04)" fill="none" stroke="#fff" stroke-miterlimit="10" stroke-width="0.3"/>
      <path id="패스_670" data-name="패스 670" d="M259,325h4.423a28.982,28.982,0,0,1,5.738.359,4.26,4.26,0,0,1,2.271,1.315,4.548,4.548,0,0,1,.956,2.032,29.262,29.262,0,0,1,.239,4.3V340.9a26.525,26.525,0,0,1-.239,4.064,2.337,2.337,0,0,1-.956,1.554,4.16,4.16,0,0,1-1.793.837,19.271,19.271,0,0,1-3.108.239H259Zm5.977,3.825v14.942c.837,0,1.315-.12,1.554-.478a7.109,7.109,0,0,0,.239-2.749v-8.846a8,8,0,0,0-.12-2.032.842.842,0,0,0-.478-.6A2.572,2.572,0,0,0,264.977,328.825Z" transform="translate(45.017 52.04)" fill="none" stroke="#fff" stroke-miterlimit="10" stroke-width="0.3"/>
      <path id="패스_671" data-name="패스 671" d="M42.229,345.911h-5.5v-1.673a3.693,3.693,0,0,0-.239-1.554.723.723,0,0,0-.717-.359.9.9,0,0,0-.837.478c-.239.239-.239.717-.239,1.315a3.166,3.166,0,0,0,.359,1.673,5.416,5.416,0,0,0,1.673,1.434c2.63,1.554,4.3,2.869,4.9,3.825a9.4,9.4,0,0,1,1.076,4.781,8.84,8.84,0,0,1-.6,3.586,3.829,3.829,0,0,1-2.152,1.913,9.48,9.48,0,0,1-3.825.837,7.586,7.586,0,0,1-4.064-.956,4.335,4.335,0,0,1-2.152-2.271A11.8,11.8,0,0,1,29.439,355v-1.434h5.5v2.749a4.433,4.433,0,0,0,.239,1.673.931.931,0,0,0,.837.359.8.8,0,0,0,.837-.478,3.69,3.69,0,0,0,.239-1.315,4.45,4.45,0,0,0-.6-2.63,22.81,22.81,0,0,0-2.749-2.032,21.369,21.369,0,0,1-2.869-2.152,6.7,6.7,0,0,1-1.2-1.793,7.113,7.113,0,0,1-.478-2.988,7.73,7.73,0,0,1,.717-3.825,4.822,4.822,0,0,1,2.152-1.913,7.984,7.984,0,0,1,3.586-.717,9.693,9.693,0,0,1,3.945.717,3.829,3.829,0,0,1,2.152,1.913,10.212,10.212,0,0,1,.478,3.825v.956Z" transform="translate(0.117 54.677)" fill="none" stroke="#fff" stroke-miterlimit="10" stroke-width="0.3"/>
      <path id="패스_672" data-name="패스 672" d="M90.086,339l-3.347,10.28,3.706,12.432h-6.1l-2.391-9.682v9.682H76.1V339h5.857v8.846L84.587,339Z" transform="translate(9.281 54.775)" fill="none" stroke="#fff" stroke-miterlimit="10" stroke-width="0.3"/>
      <path id="패스_673" data-name="패스 673" d="M123,339h9.8v4.542h-3.945v4.3h3.706v4.3h-3.706v5.02h4.3v4.542H123Z" transform="translate(18.444 54.775)" fill="none" stroke="#fff" stroke-miterlimit="10" stroke-width="0.3"/>
      <path id="패스_674" data-name="패스 674" d="M178.69,339v4.542h-3.466v18.169h-5.857V343.542H165.9V339Z" transform="translate(26.826 54.775)" fill="none" stroke="#fff" stroke-miterlimit="10" stroke-width="0.3"/>
      <path id="패스_675" data-name="패스 675" d="M225.505,349.019h-5.857v-3.945a6.281,6.281,0,0,0-.239-2.152.86.86,0,0,0-.837-.478c-.478,0-.837.12-.956.478a7.854,7.854,0,0,0-.239,2.271v10.519a7.468,7.468,0,0,0,.239,2.152.8.8,0,0,0,.837.478c.478,0,.717-.12.837-.478a8.265,8.265,0,0,0,.239-2.391v-2.869h5.857v.837a16.56,16.56,0,0,1-.478,5.02,6.182,6.182,0,0,1-2.152,2.63,6.639,6.639,0,0,1-4.184,1.076,9.525,9.525,0,0,1-4.3-.956,4.121,4.121,0,0,1-2.271-2.63,17.318,17.318,0,0,1-.6-5.02v-6.574a30.428,30.428,0,0,1,.12-3.706,6.69,6.69,0,0,1,.956-2.391,4.932,4.932,0,0,1,2.271-1.793,7.6,7.6,0,0,1,3.347-.6,8.823,8.823,0,0,1,4.3.956,5.079,5.079,0,0,1,2.271,2.51,14.867,14.867,0,0,1,.478,4.662v2.391Z" transform="translate(35.716 54.677)" fill="none" stroke="#fff" stroke-miterlimit="10" stroke-width="0.3"/>
      <path id="패스_676" data-name="패스 676" d="M272.507,339v22.712H266.65v-9.563h-1.793v9.563H259V339h5.857v8.128h1.793V339Z" transform="translate(45.017 54.775)" fill="none" stroke="#fff" stroke-miterlimit="10" stroke-width="0.18"/>
    </g>
    <rect id="사각형_104" data-name="사각형 104" width="290" height="360" transform="translate(37 133)" fill="none"/>
  </g>
</svg>
