<svg xmlns="http://www.w3.org/2000/svg" width="26" height="26" viewBox="0 0 26 26">
  <g id="그룹_144" data-name="그룹 144" transform="translate(-173 -29)">
    <g id="logo_splash" transform="translate(174.002 30)">
      <g id="그룹_94" data-name="그룹 94" transform="translate(-0.002)">
        <g id="그룹_93" data-name="그룹 93" transform="translate(0)">
          <g id="그룹_92" data-name="그룹 92">
            <path id="패스_159" data-name="패스 159" d="M124.981,468.249c0-.118,0-.232,0-.348a7.082,7.082,0,0,1,4.209-6.3s-3.41.371-9.289,6.391a12.172,12.172,0,0,0,9.283,11.851C123.4,474.061,124.642,469.229,124.981,468.249Z" transform="translate(-119.898 -456.259)" fill="rgba(255,255,255,0.75)"/>
            <path id="패스_160" data-name="패스 160" d="M129.043,289.724a7.062,7.062,0,0,1,2.944-.645l11.906,0a.007.007,0,0,0,.006-.006V284.01a.007.007,0,0,0-.006-.006l-11.865,0A12.161,12.161,0,0,0,119.9,296.041v.074C125.686,290.093,129.043,289.724,129.043,289.724Z" transform="translate(-119.899 -284)" fill="#fff"/>
            <path id="패스_161" data-name="패스 161" d="M271.275,674.15h0a7.09,7.09,0,0,1-4.09-6.25c-.329.98-1.534,5.811,4.087,11.594a11.533,11.533,0,0,0,9.463-1.779C273.746,677.714,271.275,674.15,271.275,674.15Z" transform="translate(-262.111 -655.908)" fill="rgba(255,255,255,0.55)"/>
            <path id="패스_162" data-name="패스 162" d="M422.72,664.405A2.489,2.489,0,0,0,420.3,661.3h-.09a2.516,2.516,0,0,0-2.417,1.873,7.073,7.073,0,0,1-9.692,4.59h0s2.54,3.565,9.721,3.568a12.2,12.2,0,0,0,4.9-6.925Z" transform="translate(-399.194 -649.52)" fill="rgba(255,255,255,0.25)"/>
            <path id="패스_163" data-name="패스 163" d="M129.043,289.724a7.062,7.062,0,0,1,2.944-.645l11.906,0a.007.007,0,0,0,.006-.006V284.01a.007.007,0,0,0-.006-.006l-11.865,0A12.161,12.161,0,0,0,119.9,296.041v.074C125.686,290.093,129.043,289.724,129.043,289.724Z" transform="translate(-119.899 -284)" fill="rgba(255,255,255,0.3)"/>
            <g id="그룹_91" data-name="그룹 91" transform="translate(0.001)">
              <path id="패스_164" data-name="패스 164" d="M124.981,468.249c0-.118,0-.232,0-.348a7.082,7.082,0,0,1,4.209-6.3s-3.41.371-9.289,6.391a12.172,12.172,0,0,0,9.283,11.851C123.4,474.061,124.642,469.229,124.981,468.249Z" transform="translate(-119.898 -456.258)" fill="rgba(255,255,255,0.3)"/>
              <path id="패스_165" data-name="패스 165" d="M271.275,674.15h0a7.09,7.09,0,0,1-4.09-6.25c-.329.98-1.534,5.811,4.087,11.594a11.533,11.533,0,0,0,9.463-1.779C273.746,677.714,271.275,674.15,271.275,674.15Z" transform="translate(-262.111 -655.909)" fill="rgba(255,255,255,0.3)"/>
              <path id="패스_166" data-name="패스 166" d="M422.72,664.405A2.489,2.489,0,0,0,420.3,661.3h-.09a2.516,2.516,0,0,0-2.417,1.873,7.073,7.073,0,0,1-9.692,4.59h0s2.54,3.565,9.721,3.568a12.2,12.2,0,0,0,4.9-6.925Z" transform="translate(-399.195 -649.521)" fill="rgba(255,255,255,0.3)"/>
              <path id="패스_167" data-name="패스 167" d="M129.043,289.724a7.062,7.062,0,0,1,2.944-.645l11.906,0a.007.007,0,0,0,.006-.006V284.01a.007.007,0,0,0-.006-.006l-11.865,0A12.161,12.161,0,0,0,119.9,296.041v.074C125.686,290.093,129.043,289.724,129.043,289.724Z" transform="translate(-119.9 -284)" fill="rgba(255,255,255,0.3)"/>
            </g>
          </g>
        </g>
      </g>
    </g>
    <rect id="사각형_102" data-name="사각형 102" width="26" height="26" transform="translate(173 29)" fill="none"/>
  </g>
</svg>
