<svg xmlns="http://www.w3.org/2000/svg" xmlns:xlink="http://www.w3.org/1999/xlink" width="334" height="228" viewBox="0 0 334 228">
  <defs>
    <clipPath id="clip-path">
      <rect id="사각형_101" data-name="사각형 101" width="334" height="228" transform="translate(-0.223 -0.152)" fill="none"/>
    </clipPath>
    <linearGradient id="linear-gradient" x1="0.506" y1="0.355" x2="0.506" y2="1.143" gradientUnits="objectBoundingBox">
      <stop offset="0" stop-color="#1e479c"/>
      <stop offset="1" stop-color="#15eeff"/>
    </linearGradient>
    <linearGradient id="linear-gradient-2" x1="1.105" y1="0.433" x2="-0.125" y2="0.433" xlink:href="#linear-gradient"/>
    <linearGradient id="linear-gradient-3" x1="0.171" y1="0.434" x2="1.269" y2="0.434" xlink:href="#linear-gradient"/>
    <linearGradient id="linear-gradient-4" x1="0.425" y1="0.621" x2="0.85" y2="-0.247" xlink:href="#linear-gradient"/>
    <linearGradient id="linear-gradient-5" x1="-0.043" y1="0.563" x2="0.503" y2="0.3" gradientUnits="objectBoundingBox">
      <stop offset="0" stop-color="#fff" stop-opacity="0.302"/>
      <stop offset="1" stop-color="#fff" stop-opacity="0"/>
    </linearGradient>
    <linearGradient id="linear-gradient-6" x1="0.506" y1="0.185" x2="0.506" y2="0.588" gradientUnits="objectBoundingBox">
      <stop offset="0" stop-opacity="0.302"/>
      <stop offset="1" stop-opacity="0"/>
    </linearGradient>
    <linearGradient id="linear-gradient-7" x1="0.233" y1="0.034" x2="0.362" y2="0.286" xlink:href="#linear-gradient-6"/>
    <linearGradient id="linear-gradient-8" x1="0.286" y1="0.799" x2="0.543" y2="0.509" xlink:href="#linear-gradient-6"/>
    <radialGradient id="radial-gradient" cx="0.267" cy="0.317" r="0.382" gradientTransform="translate(0.135) scale(0.498 1)" xlink:href="#linear-gradient-5"/>
  </defs>
  <g id="coin_map" transform="translate(-16.115 -21.942)">
    <g id="그룹_137" data-name="그룹 137" transform="translate(16.338 22.094)" clip-path="url(#clip-path)">
      <rect id="사각형_10" data-name="사각형 10" width="334.639" height="230.45" transform="translate(1.081 -1.377)" fill="#f2f2f6"/>
      <rect id="사각형_11" data-name="사각형 11" width="28.401" height="230.45" transform="translate(25.116 -1.377)" fill="#d3d3d3"/>
      <rect id="사각형_12" data-name="사각형 12" width="21.933" height="230.45" transform="translate(231.522 101.676) rotate(90)" fill="#d3d3d3"/>
      <rect id="사각형_13" data-name="사각형 13" width="64.575" height="31.208" transform="translate(65.233 180.248)" fill="#fff"/>
      <rect id="사각형_14" data-name="사각형 14" width="53.653" height="49.62" transform="translate(71.871 3.638)" fill="#fff"/>
      <rect id="사각형_15" data-name="사각형 15" width="16.805" height="29.415" transform="translate(56.591 3.638)" fill="#fff"/>
      <rect id="사각형_16" data-name="사각형 16" width="8.407" height="9.737" transform="translate(125.613 196.526)" fill="#fff"/>
      <rect id="사각형_17" data-name="사각형 17" width="9.632" height="9.737" transform="translate(93.885 48.21)" fill="#fff"/>
      <rect id="사각형_18" data-name="사각형 18" width="8.407" height="9.737" transform="translate(61.038 196.526)" fill="#fff"/>
      <path id="패스_685" data-name="패스 685" d="M270.673,269.5h-3.181V257.2H187.93v28.547h79.562v-9.283h3.181v9.283h4.382V269.5Z" transform="translate(-48.612 -66.379)" fill="#5d9fed"/>
      <path id="패스_686" data-name="패스 686" d="M207.845,272.048h-1.363v.584a5.12,5.12,0,0,0,.446,2.207,4.365,4.365,0,0,0,1.266,1.558l-.738.706a4.5,4.5,0,0,1-.933-.949A3.887,3.887,0,0,1,205.93,275a5.323,5.323,0,0,1-.576,1.225,5.168,5.168,0,0,1-.917,1.039l-.747-.665a4.456,4.456,0,0,0,1.25-1.623,5.551,5.551,0,0,0,.438-2.3v-.609h-1.4v-.941h3.862Zm1.858,6.922H208.7V274.1h-1.233v-.949H208.7V270.66H209.7Zm1.753.325h-1.022v-8.8h1.006Z" transform="translate(-51.584 -68.885)" fill="#fff"/>
      <path id="패스_687" data-name="패스 687" d="M217.5,278.906h-1.047V272.8l-.909.811-.617-.69,1.68-1.517h.876Z" transform="translate(-53.703 -69.056)" fill="#fff"/>
      <path id="패스_688" data-name="패스 688" d="M226.687,278.137a1.623,1.623,0,0,1-.17.722,1.833,1.833,0,0,1-.479.592,2.11,2.11,0,0,1-.738.414,2.807,2.807,0,0,1-.966.154,2.849,2.849,0,0,1-.974-.154,2.11,2.11,0,0,1-.738-.414,1.948,1.948,0,0,1-.479-.592,1.623,1.623,0,0,1,.325-1.883,2.346,2.346,0,0,1,.576-.422,2.482,2.482,0,0,1,.763-.252v-.609H220.26v-.909h8.114v.909h-3.538v.625a2.435,2.435,0,0,1,.763.243,2.547,2.547,0,0,1,.576.414,1.712,1.712,0,0,1,.357.544,1.477,1.477,0,0,1,.154.617Zm-2.321-5.258a3.531,3.531,0,0,1-1.136.9,6.247,6.247,0,0,1-1.672.592l-.487-.811a5.68,5.68,0,0,0,1.931-.747,1.493,1.493,0,0,0,.811-1.055h-2.3v-.949h5.721v.966h-2.321a1.469,1.469,0,0,0,.811,1.047,5.632,5.632,0,0,0,1.939.755l-.487.811a5.833,5.833,0,0,1-1.68-.592A3.821,3.821,0,0,1,224.366,272.879Zm1.274,5.258a.739.739,0,0,0-.105-.389.982.982,0,0,0-.276-.308,1.461,1.461,0,0,0-.406-.2,1.785,1.785,0,0,0-.519-.073,1.744,1.744,0,0,0-.519.073,1.4,1.4,0,0,0-.414.2,1.1,1.1,0,0,0-.276.308.812.812,0,0,0,0,.811.908.908,0,0,0,.276.308,1.4,1.4,0,0,0,.414.2,1.746,1.746,0,0,0,.519.073,1.771,1.771,0,0,0,.511-.073,1.4,1.4,0,0,0,.414-.2.811.811,0,0,0,.276-.308.738.738,0,0,0,.105-.422Z" transform="translate(-54.708 -68.945)" fill="#fff"/>
      <path id="패스_689" data-name="패스 689" d="M231,278.395v-.933h3.538v-2.15h1.055v2.15h3.522v.909Zm4.057-4.942a4.358,4.358,0,0,1-1.185,1.363,7.652,7.652,0,0,1-1.7.982l-.6-.811a5.75,5.75,0,0,0,1.006-.495,5.909,5.909,0,0,0,.949-.73,4.141,4.141,0,0,0,.69-.884,1.923,1.923,0,0,0,.276-.99V270.84h1.128v1.047a2.077,2.077,0,0,0,.26.99,3.936,3.936,0,0,0,.7.884,5.908,5.908,0,0,0,.949.73,5.608,5.608,0,0,0,1.022.495l-.6.811a7.377,7.377,0,0,1-1.7-.99A4.22,4.22,0,0,1,235.057,273.453Z" transform="translate(-56.733 -68.951)" fill="#fff"/>
      <path id="패스_690" data-name="패스 690" d="M241.86,276.267a6.385,6.385,0,0,0,2.434-1.712,4.771,4.771,0,0,0,1.152-2.434h-3.035v-.957h4.179a6.435,6.435,0,0,1-.316,2.085,5.954,5.954,0,0,1-.868,1.623,6.279,6.279,0,0,1-1.242,1.258,8.723,8.723,0,0,1-1.623.966Zm6.2-5.777h1.047v8.8h-1.047Z" transform="translate(-58.781 -68.885)" fill="#fff"/>
      <path id="패스_691" data-name="패스 691" d="M258.783,270.49h1.047V275.7h-1.047v-2.361h-1.5a2.069,2.069,0,0,1-.633,1.217,2.183,2.183,0,0,1-.722.471,2.581,2.581,0,0,1-1.8,0,2.215,2.215,0,0,1-.73-.471,2.19,2.19,0,0,1-.487-.714,2.24,2.24,0,0,1,1.217-3,2.354,2.354,0,0,1,.909-.17,2.329,2.329,0,0,1,.893.17,2.184,2.184,0,0,1,.722.471,2.126,2.126,0,0,1,.617,1.087h1.517Zm-5.023,2.475a1.355,1.355,0,0,0,.1.527,1.177,1.177,0,0,0,.268.406,1.21,1.21,0,0,0,.4.26,1.185,1.185,0,0,0,.487.1,1.241,1.241,0,0,0,.487-.1,1.137,1.137,0,0,0,.381-.26,1.177,1.177,0,0,0,.268-.406,1.356,1.356,0,0,0,.1-.527,1.306,1.306,0,0,0-.1-.511,1.217,1.217,0,0,0-.268-.414,1.161,1.161,0,0,0-.381-.268,1.4,1.4,0,0,0-.487-.089,1.2,1.2,0,0,0-.893.357,1.282,1.282,0,0,0-.357.925Zm1,6.792v-3.692h1.055v1h2.946v-1h1.047v3.692Zm4-.917v-.876h-2.946v.876Z" transform="translate(-60.83 -68.885)" fill="#fff"/>
      <path id="패스_692" data-name="패스 692" d="M263.13,275.107h1.712V273h1.047v2.061h.154l1.5-.105c.463-.041.811-.081,1.16-.13l.1.9c-.325.049-.722.089-1.193.13l-1.485.105c-.527.041-1.039.065-1.534.089s-.974,0-1.412,0Zm3.538-.9a12.384,12.384,0,0,0,.211-1.241,10.553,10.553,0,0,0,.1-1.112h-3.189V270.9h4.276a11.125,11.125,0,0,1-.1,1.818,14.887,14.887,0,0,1-.268,1.623Zm3.765,5.3h-5.347v-2.783h1.071v1.858h4.276Zm1.136-5.38h-1.363v2.816h-1.047V270.49h1.047v2.71h1.363Z" transform="translate(-62.791 -68.885)" fill="#fff"/>
      <path id="패스_693" data-name="패스 693" d="M81.807,181.18l-8.1,8.114h-28.4l-8.1-8.114V123.324l8.1-8.114h28.4l8.1,8.114Z" transform="translate(-20.193 -39.606)" fill="#d3d3d3"/>
      <rect id="사각형_19" data-name="사각형 19" width="7.571" height="49.441" rx="2" transform="translate(127.658 3.638)" fill="#e5edf9"/>
      <rect id="사각형_20" data-name="사각형 20" width="4.852" height="0.406" transform="translate(129.013 6.737)" fill="#f2f2f6"/>
      <rect id="사각형_21" data-name="사각형 21" width="4.852" height="0.406" transform="translate(129.013 9.642)" fill="#f2f2f6"/>
      <rect id="사각형_22" data-name="사각형 22" width="4.852" height="0.406" transform="translate(129.013 12.539)" fill="#f2f2f6"/>
      <rect id="사각형_23" data-name="사각형 23" width="4.852" height="0.406" transform="translate(129.013 15.444)" fill="#f2f2f6"/>
      <rect id="사각형_24" data-name="사각형 24" width="4.852" height="0.406" transform="translate(129.013 18.341)" fill="#f2f2f6"/>
      <rect id="사각형_25" data-name="사각형 25" width="4.852" height="0.406" transform="translate(129.013 21.246)" fill="#f2f2f6"/>
      <rect id="사각형_26" data-name="사각형 26" width="4.852" height="0.406" transform="translate(129.013 24.143)" fill="#f2f2f6"/>
      <rect id="사각형_27" data-name="사각형 27" width="4.852" height="0.406" transform="translate(129.013 27.048)" fill="#f2f2f6"/>
      <rect id="사각형_28" data-name="사각형 28" width="4.852" height="0.406" transform="translate(129.013 29.945)" fill="#f2f2f6"/>
      <rect id="사각형_29" data-name="사각형 29" width="4.852" height="0.406" transform="translate(129.013 32.85)" fill="#f2f2f6"/>
      <rect id="사각형_30" data-name="사각형 30" width="4.852" height="0.406" transform="translate(129.013 35.754)" fill="#f2f2f6"/>
      <rect id="사각형_31" data-name="사각형 31" width="4.852" height="0.406" transform="translate(129.013 38.651)" fill="#f2f2f6"/>
      <rect id="사각형_32" data-name="사각형 32" width="4.852" height="0.406" transform="translate(129.013 41.556)" fill="#f2f2f6"/>
      <rect id="사각형_33" data-name="사각형 33" width="4.852" height="0.406" transform="translate(129.013 44.453)" fill="#f2f2f6"/>
      <rect id="사각형_34" data-name="사각형 34" width="4.852" height="0.406" transform="translate(129.013 47.358)" fill="#f2f2f6"/>
      <rect id="사각형_35" data-name="사각형 35" width="4.852" height="0.406" transform="translate(129.013 50.255)" fill="#f2f2f6"/>
      <circle id="타원_1" data-name="타원 1" cx="2.296" cy="2.296" r="2.296" transform="translate(129.159 26.066)" fill="#fff"/>
      <path id="패스_694" data-name="패스 694" d="M177.08,55.215a.1.1,0,0,1,.105-.105h1.29a1.031,1.031,0,0,1,.422.089.909.909,0,0,1,.333.243,1.071,1.071,0,0,1,.219.341,1.16,1.16,0,0,1,.073.406,1.112,1.112,0,0,1-.073.4,1.047,1.047,0,0,1-.211.341,1.08,1.08,0,0,1-.333.235.925.925,0,0,1-.422.1h-.747v1.128a.089.089,0,0,1-.1.1h-.454c-.065,0-.105,0-.105-.1Zm1.785.974a.479.479,0,0,0-.041-.187.665.665,0,0,0-.1-.162,1.078,1.078,0,0,0-.154-.114.487.487,0,0,0-.195,0h-.641v1h.641a.519.519,0,0,0,.195,0,.5.5,0,0,0,.252-.268.519.519,0,0,0,.041-.268Z" transform="translate(-46.566 -28.273)" fill="#2477ce"/>
      <rect id="사각형_36" data-name="사각형 36" width="8.041" height="41.854" rx="2" transform="translate(231.084 219.246) rotate(-90)" fill="#e5edf9"/>
      <rect id="사각형_37" data-name="사각형 37" width="0.43" height="5.153" transform="translate(233.519 212.641)" fill="#f2f2f6"/>
      <rect id="사각형_38" data-name="사각형 38" width="0.43" height="5.153" transform="translate(236.602 212.641)" fill="#f2f2f6"/>
      <rect id="사각형_39" data-name="사각형 39" width="0.43" height="5.153" transform="translate(239.677 212.641)" fill="#f2f2f6"/>
      <rect id="사각형_40" data-name="사각형 40" width="0.43" height="5.153" transform="translate(242.761 212.641)" fill="#f2f2f6"/>
      <rect id="사각형_41" data-name="사각형 41" width="0.43" height="5.153" transform="translate(245.844 212.641)" fill="#f2f2f6"/>
      <rect id="사각형_42" data-name="사각형 42" width="0.43" height="5.153" transform="translate(248.92 212.641)" fill="#f2f2f6"/>
      <rect id="사각형_43" data-name="사각형 43" width="0.43" height="5.153" transform="translate(252.003 212.641)" fill="#f2f2f6"/>
      <rect id="사각형_44" data-name="사각형 44" width="0.43" height="5.153" transform="translate(255.087 212.641)" fill="#f2f2f6"/>
      <rect id="사각형_45" data-name="사각형 45" width="0.43" height="5.153" transform="translate(258.162 212.641)" fill="#f2f2f6"/>
      <rect id="사각형_46" data-name="사각형 46" width="0.43" height="5.153" transform="translate(261.246 212.641)" fill="#f2f2f6"/>
      <rect id="사각형_47" data-name="사각형 47" width="0.43" height="5.153" transform="translate(264.329 212.641)" fill="#f2f2f6"/>
      <rect id="사각형_48" data-name="사각형 48" width="0.43" height="5.153" transform="translate(267.404 212.641)" fill="#f2f2f6"/>
      <rect id="사각형_49" data-name="사각형 49" width="0.43" height="5.153" transform="translate(270.488 212.641)" fill="#f2f2f6"/>
      <circle id="타원_2" data-name="타원 2" cx="2.442" cy="2.442" r="2.442" transform="translate(239.718 212.779)" fill="#fff"/>
      <path id="패스_695" data-name="패스 695" d="M313.448,285.394c0-.081,0-.114.106-.114h1.371a1.128,1.128,0,0,1,.811.349,1.2,1.2,0,0,1,.227.365,1.128,1.128,0,0,1,.081.43,1.088,1.088,0,0,1-.081.422,1.063,1.063,0,0,1-.227.365,1.1,1.1,0,0,1-.349.252.991.991,0,0,1-.438.1h-.811v1.193c0,.073-.041.105-.114.105h-.479c-.073,0-.105,0-.105-.105Zm1.883,1.031a.5.5,0,0,0,0-.195.6.6,0,0,0-.106-.17.812.812,0,0,0-.162-.122.471.471,0,0,0-.211-.049h-.673v1.063h.673a.414.414,0,0,0,.2-.049.389.389,0,0,0,.162-.114.487.487,0,0,0,.114-.17.544.544,0,0,0,0-.195Z" transform="translate(-72.278 -71.673)" fill="#2477ce"/>
      <rect id="사각형_50" data-name="사각형 50" width="28.401" height="7.4" transform="translate(25.116 8.238)" fill="#828282"/>
      <rect id="사각형_51" data-name="사각형 51" width="2.28" height="32.945" transform="translate(53.516 3.638)" fill="#828282"/>
      <rect id="사각형_52" data-name="사각형 52" width="2.28" height="32.945" transform="translate(22.835 3.638)" fill="#828282"/>
      <path id="패스_696" data-name="패스 696" d="M22.546,163.138l-2.256-2.158v-.617l2.256-2.183v.755l-1.777,1.736,1.777,1.72Z" transform="translate(-17.002 -47.708)" fill="#fff"/>
      <path id="패스_697" data-name="패스 697" d="M26.858,162.619h-.584v-3.246l-.5.422-.341-.373.941-.811h.487Z" transform="translate(-17.971 -47.789)" fill="#fff"/>
      <path id="패스_698" data-name="패스 698" d="M30.574,158.373a3.083,3.083,0,0,1-.138.933,2.507,2.507,0,0,1-.389.763,2.434,2.434,0,0,1-.576.536,3.733,3.733,0,0,1-.714.381l-.316-.438a2.337,2.337,0,0,0,1.16-.811l-.917.105-.114-.495,1.3-.081a2.142,2.142,0,0,0,.1-.422H28.756v-.5Zm-.811,4.641V161.14h2.864v1.874Zm2.321-1.388H30.323v.909h1.736Zm-1.047-3.416h.552v1.014h.5v-1.1h.56v2.775h-.56V159.72h-.5v1.136h-.552Z" transform="translate(-18.539 -47.698)" fill="#fff"/>
      <path id="패스_699" data-name="패스 699" d="M37.535,161.263c-.243.041-.5.065-.811.089l-.811.049h-1.4l-.049-.495h.6v-2.012h-.487V158.4h2.572v.495h-.454v1.947l.811-.081Zm-1.623-.357h.219v-1.98h-.576v2h.333ZM38.5,158.09v4.7h-.576v-2.735H37v-.414h.933v-1.477Z" transform="translate(-19.674 -47.691)" fill="#fff"/>
      <path id="패스_700" data-name="패스 700" d="M40.22,162.232v-.479h4.512v.479Zm2.256-2.556a2.434,2.434,0,0,1-.657.722,4.058,4.058,0,0,1-.941.527l-.333-.438a2.839,2.839,0,0,0,.56-.26,3.1,3.1,0,0,0,.519-.389,2.354,2.354,0,0,0,.389-.471,1.071,1.071,0,0,0,.154-.527v-.56h.617v.584a1.055,1.055,0,0,0,.146.527,1.907,1.907,0,0,0,.389.471,3.165,3.165,0,0,0,.527.389,2.434,2.434,0,0,0,.56.26l-.333.438a4.26,4.26,0,0,1-.941-.527A2.2,2.2,0,0,1,42.476,159.676Z" transform="translate(-20.76 -47.727)" fill="#fff"/>
      <rect id="사각형_53" data-name="사각형 53" width="2.402" height="7.733" transform="translate(19.176 94.746)" fill="#fff"/>
      <rect id="사각형_54" data-name="사각형 54" width="2.402" height="7.733" transform="translate(23.907 94.746)" fill="#fff"/>
      <rect id="사각형_55" data-name="사각형 55" width="2.402" height="7.733" transform="translate(28.645 94.746)" fill="#fff"/>
      <rect id="사각형_56" data-name="사각형 56" width="2.402" height="7.733" transform="translate(33.376 94.746)" fill="#fff"/>
      <rect id="사각형_57" data-name="사각형 57" width="2.402" height="7.733" transform="translate(38.115 94.746)" fill="#fff"/>
      <rect id="사각형_58" data-name="사각형 58" width="2.402" height="7.733" transform="translate(42.854 94.746)" fill="#fff"/>
      <rect id="사각형_59" data-name="사각형 59" width="2.402" height="7.733" transform="translate(47.584 94.746)" fill="#fff"/>
      <rect id="사각형_60" data-name="사각형 60" width="2.402" height="7.733" transform="translate(52.323 94.746)" fill="#fff"/>
      <rect id="사각형_61" data-name="사각형 61" width="2.402" height="7.733" transform="translate(57.054 94.746)" fill="#fff"/>
      <rect id="사각형_62" data-name="사각형 62" width="8.731" height="44.832" rx="2" transform="translate(80.594 177.092) rotate(-90)" fill="#e5edf9"/>
      <rect id="사각형_63" data-name="사각형 63" width="0.471" height="5.599" transform="translate(82.704 169.935)" fill="#f2f2f6"/>
      <rect id="사각형_64" data-name="사각형 64" width="0.471" height="5.599" transform="translate(86.047 169.935)" fill="#f2f2f6"/>
      <rect id="사각형_65" data-name="사각형 65" width="0.471" height="5.599" transform="translate(89.398 169.935)" fill="#f2f2f6"/>
      <rect id="사각형_66" data-name="사각형 66" width="0.471" height="5.599" transform="translate(92.741 169.935)" fill="#f2f2f6"/>
      <rect id="사각형_67" data-name="사각형 67" width="0.471" height="5.599" transform="translate(96.084 169.935)" fill="#f2f2f6"/>
      <rect id="사각형_68" data-name="사각형 68" width="0.471" height="5.599" transform="translate(99.436 169.935)" fill="#f2f2f6"/>
      <rect id="사각형_69" data-name="사각형 69" width="0.471" height="5.599" transform="translate(102.779 169.935)" fill="#f2f2f6"/>
      <rect id="사각형_70" data-name="사각형 70" width="0.471" height="5.599" transform="translate(106.122 169.935)" fill="#f2f2f6"/>
      <rect id="사각형_71" data-name="사각형 71" width="0.471" height="5.599" transform="translate(109.473 169.935)" fill="#f2f2f6"/>
      <rect id="사각형_72" data-name="사각형 72" width="0.471" height="5.599" transform="translate(112.816 169.935)" fill="#f2f2f6"/>
      <rect id="사각형_73" data-name="사각형 73" width="0.471" height="5.599" transform="translate(116.16 169.935)" fill="#f2f2f6"/>
      <rect id="사각형_74" data-name="사각형 74" width="0.471" height="5.599" transform="translate(119.511 169.935)" fill="#f2f2f6"/>
      <rect id="사각형_75" data-name="사각형 75" width="0.471" height="5.599" transform="translate(122.854 169.935)" fill="#f2f2f6"/>
      <circle id="타원_3" data-name="타원 3" cx="2.645" cy="2.645" r="2.645" transform="translate(100.369 169.716)" fill="#fff"/>
      <path id="패스_701" data-name="패스 701" d="M141.86,232.412c0-.081,0-.122.114-.122h1.485a1.128,1.128,0,0,1,.495.105,1.072,1.072,0,0,1,.381.276,1.33,1.33,0,0,1,.252.4,1.233,1.233,0,0,1-.252,1.315,1.144,1.144,0,0,1-.373.276,1.071,1.071,0,0,1-.487.106h-.86v1.3c0,.081,0,.114-.122.114h-.519c-.081,0-.114,0-.114-.114Zm2.045,1.12a.47.47,0,0,0,0-.211.551.551,0,0,0-.114-.187.544.544,0,0,0-.4-.179h-.738v1.152h.738a.511.511,0,0,0,.219-.049.56.56,0,0,0,.179-.13.551.551,0,0,0,.114-.187A.47.47,0,0,0,143.9,233.531Z" transform="translate(-39.925 -61.682)" fill="#2477ce"/>
      <rect id="사각형_76" data-name="사각형 76" width="8.731" height="44.832" rx="2" transform="translate(80.594 162.543) rotate(-90)" fill="#e5edf9"/>
      <rect id="사각형_77" data-name="사각형 77" width="0.471" height="5.599" transform="translate(82.704 155.377)" fill="#f2f2f6"/>
      <rect id="사각형_78" data-name="사각형 78" width="0.471" height="5.599" transform="translate(86.047 155.377)" fill="#f2f2f6"/>
      <rect id="사각형_79" data-name="사각형 79" width="0.471" height="5.599" transform="translate(89.398 155.377)" fill="#f2f2f6"/>
      <rect id="사각형_80" data-name="사각형 80" width="0.471" height="5.599" transform="translate(92.741 155.377)" fill="#f2f2f6"/>
      <rect id="사각형_81" data-name="사각형 81" width="0.471" height="5.599" transform="translate(96.084 155.377)" fill="#f2f2f6"/>
      <rect id="사각형_82" data-name="사각형 82" width="0.471" height="5.599" transform="translate(99.436 155.377)" fill="#f2f2f6"/>
      <rect id="사각형_83" data-name="사각형 83" width="0.471" height="5.599" transform="translate(102.779 155.377)" fill="#f2f2f6"/>
      <rect id="사각형_84" data-name="사각형 84" width="0.471" height="5.599" transform="translate(106.122 155.377)" fill="#f2f2f6"/>
      <rect id="사각형_85" data-name="사각형 85" width="0.471" height="5.599" transform="translate(109.473 155.377)" fill="#f2f2f6"/>
      <rect id="사각형_86" data-name="사각형 86" width="0.471" height="5.599" transform="translate(112.816 155.377)" fill="#f2f2f6"/>
      <rect id="사각형_87" data-name="사각형 87" width="0.471" height="5.599" transform="translate(116.16 155.377)" fill="#f2f2f6"/>
      <rect id="사각형_88" data-name="사각형 88" width="0.471" height="5.599" transform="translate(119.511 155.377)" fill="#f2f2f6"/>
      <rect id="사각형_89" data-name="사각형 89" width="0.471" height="5.599" transform="translate(122.854 155.377)" fill="#f2f2f6"/>
      <rect id="사각형_90" data-name="사각형 90" width="136.728" height="90.208" rx="22.5" transform="translate(124.022 67.539)" fill="#fff"/>
      <rect id="사각형_91" data-name="사각형 91" width="149.728" height="103.954" rx="30" transform="translate(124.022 60.666)" fill="#fff"/>
      <path id="패스_702" data-name="패스 702" d="M297.011,196.857H193.487A17.535,17.535,0,0,1,176,179.338V120.589a17.535,17.535,0,0,1,17.511-17.519h103.5a17.535,17.535,0,0,1,17.519,17.519v58.749A17.535,17.535,0,0,1,297.011,196.857ZM193.487,103.443a17.162,17.162,0,0,0-17.138,17.146v58.749a17.154,17.154,0,0,0,17.138,17.138H297.011a17.154,17.154,0,0,0,17.138-17.138V120.589a17.162,17.162,0,0,0-17.138-17.146Z" transform="translate(-46.362 -37.316)" fill="#f2f2f6"/>
      <path id="패스_703" data-name="패스 703" d="M297.842,192.808H195.325a12.261,12.261,0,0,1-12.245-12.245V121.815a12.261,12.261,0,0,1,12.245-12.245H297.842a12.261,12.261,0,0,1,12.245,12.245v58.749A12.261,12.261,0,0,1,297.842,192.808ZM195.325,109.919a11.88,11.88,0,0,0-11.863,11.871v58.749a11.88,11.88,0,0,0,11.863,11.871H297.842a11.88,11.88,0,0,0,11.871-11.871V121.79a11.88,11.88,0,0,0-11.871-11.871Z" transform="translate(-47.697 -38.542)" fill="#f2f2f6"/>
      <rect id="사각형_92" data-name="사각형 92" width="114.381" height="74.677" transform="translate(141.696 75.304)" fill="#b5eabe"/>
      <rect id="사각형_93" data-name="사각형 93" width="0.755" height="74.677" transform="translate(198.513 75.304)" fill="#fff"/>
      <path id="패스_704" data-name="패스 704" d="M258.251,171.063a13.291,13.291,0,1,1,13.291-13.291,13.291,13.291,0,0,1-13.291,13.291Zm0-25.828a12.537,12.537,0,1,0,12.537,12.537A12.537,12.537,0,0,0,258.251,145.235Z" transform="translate(-59.365 -45.125)" fill="#fff"/>
      <path id="패스_705" data-name="패스 705" d="M204.871,172.868H191.06v-.755h13.064V138.755H191.06V138h13.811Z" transform="translate(-49.202 -43.903)" fill="#fff"/>
      <path id="패스_706" data-name="패스 706" d="M314.8,172.868h13.811v-.755H315.555V138.755h13.056V138H314.8Z" transform="translate(-72.534 -43.903)" fill="#fff"/>
      <path id="패스_707" data-name="패스 707" d="M125.473,264.207a3.317,3.317,0,0,1-.909-.422,2.581,2.581,0,0,1-.649-.592,2.817,2.817,0,0,1-.641.641,3.532,3.532,0,0,1-.958.479l-.446-.592a3.9,3.9,0,0,0,.519-.227,3.173,3.173,0,0,0,.527-.325,1.809,1.809,0,0,0,.406-.422.884.884,0,0,0,.17-.519v-.081h-1.315v-.665h3.473v.665h-1.331v.065a.811.811,0,0,0,.162.495,1.752,1.752,0,0,0,.414.4,2.6,2.6,0,0,0,.527.3c.187.089.357.154.511.211Zm-2.686-3.075v-.657h2.183v.657Zm2.645,3.311a2.207,2.207,0,0,1,.649.1,1.963,1.963,0,0,1,.568.284,1.428,1.428,0,0,1,.4.454,1.339,1.339,0,0,1,0,1.217,1.4,1.4,0,0,1-.4.446,1.964,1.964,0,0,1-.568.284,2.239,2.239,0,0,1-1.306,0,1.965,1.965,0,0,1-.568-.284,1.5,1.5,0,0,1-.4-.446,1.339,1.339,0,0,1,0-1.217,1.534,1.534,0,0,1,.4-.454,1.964,1.964,0,0,1,.568-.284,2.221,2.221,0,0,1,.69-.1Zm0,.665a1.1,1.1,0,0,0-.373.057,1.111,1.111,0,0,0-.308.162.86.86,0,0,0-.211.243.722.722,0,0,0,0,.633.99.99,0,0,0,.211.243.917.917,0,0,0,.308.154,1.1,1.1,0,0,0,.373.057,1.08,1.08,0,0,0,.365-.057.917.917,0,0,0,.308-.154.811.811,0,0,0,.211-.243.722.722,0,0,0,0-.633.755.755,0,0,0-.211-.243,1.112,1.112,0,0,0-.308-.162,1.08,1.08,0,0,0-.333-.057Zm2.864-2.321h-1.031v1.623h-.811v-3.96h.811v1.623H128.3Z" transform="translate(-36.156 -66.991)" fill="#7c7c7c"/>
      <path id="패스_708" data-name="패스 708" d="M130.19,266.266v-.657h2.67v-1.566h.811v1.566h2.67v.657ZM133.3,262.9a3.063,3.063,0,0,1-.349.471,4.158,4.158,0,0,1-.479.446,5.182,5.182,0,0,1-.584.381,3.811,3.811,0,0,1-.673.284l-.43-.584a3.472,3.472,0,0,0,.738-.325,4.056,4.056,0,0,0,.674-.479,2.434,2.434,0,0,0,.487-.609,1.437,1.437,0,0,0,.187-.706v-.122h-1.761V261h4.309v.69h-1.688v.122a1.428,1.428,0,0,0,.179.706,2.435,2.435,0,0,0,.487.609,4.057,4.057,0,0,0,.673.479,3.658,3.658,0,0,0,.738.325l-.43.584a3.6,3.6,0,0,1-.682-.292,3.4,3.4,0,0,1-.592-.389,3.059,3.059,0,0,1-.479-.43,1.883,1.883,0,0,1-.341-.5Z" transform="translate(-37.725 -67.095)" fill="#7c7c7c"/>
      <path id="패스_709" data-name="패스 709" d="M141.759,266.583H139V261.13h2.7v.747h-1.891v1.517H141.6v.746h-1.793v1.688h1.972Z" transform="translate(-39.386 -67.12)" fill="#7c7c7c"/>
      <path id="패스_710" data-name="패스 710" d="M143.46,263.831h1.306V262.3h.811v1.5h.122l1.128-.081a5.865,5.865,0,0,0,.876-.089l.073.649-.9.1-1.12.081-1.16.057h-1.063Zm2.662-.657a8.021,8.021,0,0,0,.162-.9c.041-.308.065-.576.073-.811h-2.434v-.673h3.246a7.025,7.025,0,0,1-.081,1.323,8.4,8.4,0,0,1-.195,1.185Zm2.832,3.846h-4.017V265h.811v1.347h3.246Zm.868-3.911h-1.055v2.045h-.811V260.48h.811v1.964H149.8Z" transform="translate(-40.227 -66.997)" fill="#7c7c7c"/>
      <path id="패스_711" data-name="패스 711" d="M116.268,53.064v-.674h3.473v.674h-1.306v.105a1.623,1.623,0,0,0,.122.625,1.728,1.728,0,0,0,.341.527,2.532,2.532,0,0,0,.487.438,3.246,3.246,0,0,0,.609.349l-.487.576a3.522,3.522,0,0,1-.86-.568,2.978,2.978,0,0,1-.617-.714,4.058,4.058,0,0,1-.609.811,4.106,4.106,0,0,1-.9.633L116,55.255a5.769,5.769,0,0,0,.6-.381,2.767,2.767,0,0,0,.5-.471,2.6,2.6,0,0,0,.341-.552,1.623,1.623,0,0,0,.13-.673v-.114Zm3.319,2.848a2.224,2.224,0,0,1,.657.1,2.037,2.037,0,0,1,.56.292,1.38,1.38,0,0,1,0,2.207,1.671,1.671,0,0,1-.56.292,2.231,2.231,0,0,1-.657.105,2.272,2.272,0,0,1-.657-.105,1.672,1.672,0,0,1-.56-.292,1.38,1.38,0,0,1,0-2.207,2.037,2.037,0,0,1,.56-.292A2.264,2.264,0,0,1,119.587,55.912Zm0,.674a1.169,1.169,0,0,0-.373.065,1.039,1.039,0,0,0-.308.17,1.1,1.1,0,0,0-.211.26.738.738,0,0,0-.081.325.755.755,0,0,0,.081.341,1.1,1.1,0,0,0,.211.26,1.233,1.233,0,0,0,.308.162,1.16,1.16,0,0,0,.373.057,1.128,1.128,0,0,0,.373-.057,1.233,1.233,0,0,0,.308-.162.925.925,0,0,0,.211-.26.754.754,0,0,0,.081-.341.739.739,0,0,0-.081-.325.925.925,0,0,0-.211-.26,1.038,1.038,0,0,0-.308-.17A1.128,1.128,0,0,0,119.587,56.586Zm1.087-4.536h.811v3.789h-.811V54.257h-1.266v-.674h1.266Z" transform="translate(-35.049 -27.696)" fill="#7c7c7c"/>
      <path id="패스_712" data-name="패스 712" d="M124.11,57.82v-.657h2.67V55.9h-1.623V52.44h.811v1.168h2.515V52.44h.811V55.9h-1.623v1.266h2.67v.657Zm4.325-2.589v-.949H125.92v.949Z" transform="translate(-36.578 -27.77)" fill="#7c7c7c"/>
      <path id="패스_713" data-name="패스 713" d="M135.206,57.425V56.216H132.39v-.657h6.175v.657H136.05v1.209Zm2.434,1.3h-4.268V56.865h.811v1.193h3.505Zm-4.252-3.773V52.41h4.057v2.54Zm3.3-1.883h-2.515v1.217h2.515Z" transform="translate(-38.139 -27.764)" fill="#7c7c7c"/>
      <path id="패스_714" data-name="패스 714" d="M145.067,57.469c-.26.041-.576.073-.941.1s-.747.057-1.144.073l-1.168.057H140.8l-.049-.682h1.745v-.625a1.42,1.42,0,0,1-.641-.3,1.023,1.023,0,0,1-.308-.381,1.217,1.217,0,0,1,0-.99,1.136,1.136,0,0,1,.308-.373,1.574,1.574,0,0,1,.463-.252,1.761,1.761,0,0,1,.56-.081,1.834,1.834,0,0,1,.56.081,1.574,1.574,0,0,1,.463.252,1.16,1.16,0,0,1,.316.373,1.136,1.136,0,0,1,0,.99,1.039,1.039,0,0,1-.316.381,1.079,1.079,0,0,1-.276.179,1.623,1.623,0,0,1-.333.114v.568l.909-.073a4.7,4.7,0,0,0,.771-.089Zm-4.057-3.7v-.657h3.652v.657Zm.868-1.006v-.673h1.964v.674ZM143.59,55.2a.5.5,0,0,0-.211-.406.876.876,0,0,0-1.014,0,.5.5,0,0,0-.195.406.536.536,0,0,0,.195.43.876.876,0,0,0,1.014,0,.527.527,0,0,0,.195-.422Zm2.434-3.157v2.58H147.1v.674h-1.079v3.14h-.811V52.048Z" transform="translate(-39.716 -27.694)" fill="#7c7c7c"/>
      <path id="패스_715" data-name="패스 715" d="M149,55.409h1.306V53.843h.811v1.493h.122l1.128-.081a5.862,5.862,0,0,0,.876-.089l.073.649-.9.1-1.12.081-1.152.057h-1.071Zm2.67-.657a8.023,8.023,0,0,0,.154-.9c.041-.308.065-.576.073-.811h-2.434v-.674h3.246a7.792,7.792,0,0,1-.073,1.323,9.736,9.736,0,0,1-.2,1.185ZM154.5,58.6h-4.057v-2.02h.811v1.347H154.5Zm.86-3.911h-1.006v2.045h-.811V52.05h.811v1.972h1.031Z" transform="translate(-41.271 -27.696)" fill="#7c7c7c"/>
      <rect id="사각형_94" data-name="사각형 94" width="85.502" height="39.014" transform="translate(242.793 3.548)" fill="#fff"/>
      <rect id="사각형_95" data-name="사각형 95" width="92.367" height="38.576" transform="translate(328.295 62.289) rotate(90)" fill="#fff"/>
      <rect id="사각형_96" data-name="사각형 96" width="24.1" height="51.713" transform="translate(328.303 194.765) rotate(90)" fill="#fff"/>
      <rect id="사각형_97" data-name="사각형 97" width="43.315" height="24.011" transform="translate(328.295 151.45) rotate(90)" fill="#fff"/>
      <rect id="사각형_98" data-name="사각형 98" width="78.824" height="39.014" transform="translate(139.562 3.548)" fill="#fff"/>
      <rect id="사각형_99" data-name="사각형 99" width="19.036" height="9.737" transform="translate(151.928 37.605)" fill="#fff"/>
      <path id="패스_716" data-name="패스 716" d="M225.921,51.131a3.027,3.027,0,0,1-.917-.414,2.58,2.58,0,0,1-.649-.592,2.5,2.5,0,0,1-.641.633,3.433,3.433,0,0,1-.957.487l-.446-.592a5.354,5.354,0,0,0,.519-.227,3.172,3.172,0,0,0,.527-.325,2.037,2.037,0,0,0,.414-.422.941.941,0,0,0,.162-.527V49.07h-1.306v-.657h3.489v.657h-1.331v.073a.812.812,0,0,0,.17.495,1.72,1.72,0,0,0,.406.4,2.6,2.6,0,0,0,.527.3c.187.081.357.154.511.2Zm-2.662-3.075V47.4h2.183v.657Zm2.645,3.319a2.207,2.207,0,0,1,.649.1,1.866,1.866,0,0,1,.568.284,1.347,1.347,0,0,1,.4.454,1.266,1.266,0,0,1,0,1.209,1.428,1.428,0,0,1-.4.454,1.85,1.85,0,0,1-.568.276,2.077,2.077,0,0,1-1.306,0,1.948,1.948,0,0,1-.568-.276,1.534,1.534,0,0,1-.4-.454,1.323,1.323,0,0,1,0-1.209,1.436,1.436,0,0,1,.4-.454,1.963,1.963,0,0,1,.568-.284,2.223,2.223,0,0,1,.657-.105Zm0,.665a1.128,1.128,0,0,0-.373.057.933.933,0,0,0-.308.162.762.762,0,0,0-.211.243.666.666,0,0,0-.073.308.649.649,0,0,0,.073.316.892.892,0,0,0,.211.252,1.1,1.1,0,0,0,.308.154,1.379,1.379,0,0,0,.373.057,1.436,1.436,0,0,0,.373-.057,1.047,1.047,0,0,0,.3-.154.811.811,0,0,0,.211-.252.657.657,0,0,0,.081-.316.706.706,0,0,0-.292-.552.893.893,0,0,0-.3-.162,1.16,1.16,0,0,0-.373-.065Zm2.864-2.321h-1.031v1.623h-.811V47.39h.811v1.623h1.022Z" transform="translate(-55.094 -26.818)" fill="#7c7c7c"/>
      <path id="패스_717" data-name="패스 717" d="M230.63,53.171v-.657h2.67V50.955h.811v1.558h2.67v.657Zm3.108-3.359a2.93,2.93,0,0,1-.349.471,4.147,4.147,0,0,1-.479.438,3.619,3.619,0,0,1-.584.381,4.561,4.561,0,0,1-.673.292l-.43-.584a3.935,3.935,0,0,0,.738-.325,4.057,4.057,0,0,0,.674-.479,2.434,2.434,0,0,0,.487-.609,1.485,1.485,0,0,0,.187-.706v-.13h-1.761V47.88h4.309v.682h-1.68v.13a1.469,1.469,0,0,0,.178.706,2.435,2.435,0,0,0,.487.609,3.952,3.952,0,0,0,1.42.811l-.438.584a5.063,5.063,0,0,1-.682-.292,4.4,4.4,0,0,1-.592-.389,4.17,4.17,0,0,1-.479-.43,2.337,2.337,0,0,1-.333-.479Z" transform="translate(-56.663 -26.91)" fill="#7c7c7c"/>
      <path id="패스_718" data-name="패스 718" d="M243.522,48.07l-2.053,5.4h-.755l-2-5.4h.86l1.534,4.4,1.623-4.4Z" transform="translate(-58.187 -26.946)" fill="#7c7c7c"/>
      <path id="패스_719" data-name="패스 719" d="M245.2,50.741h1.331V49.183h.811v1.493h.114l1.128-.073a5.867,5.867,0,0,0,.884-.089l.073.649-.9.1-1.128.073-1.152.065H245.3Zm2.67-.657c.065-.292.122-.584.162-.893s.065-.576.073-.811h-2.434v-.674h3.246a7.068,7.068,0,0,1-.081,1.323,9.733,9.733,0,0,1-.2,1.185Zm2.848,3.854h-4.057v-2h.811V53.3h3.246Zm.811-3.911H250.5v2.045h-.811V47.39h.811v1.964h1.031Z" transform="translate(-59.411 -26.818)" fill="#7c7c7c"/>
      <path id="패스_720" data-name="패스 720" d="M54.93,35.5a1.12,1.12,0,0,1,.089-.446,1,1,0,0,1,.243-.357,1.25,1.25,0,0,1,.365-.243,1.2,1.2,0,0,1,.463-.081,1.177,1.177,0,0,1,.446.081,1.063,1.063,0,0,1,.365.243l.114.122a.657.657,0,0,1,.1.146V34.77h.86v-.56H58.5v3.165h-.527v-1.12h-.86v-.2a.812.812,0,0,1-.1.138.868.868,0,0,1-.114.13,1.047,1.047,0,0,1-.365.235,1.177,1.177,0,0,1-.446.081,1.2,1.2,0,0,1-.463-.081,1.225,1.225,0,0,1-.365-.235,1.112,1.112,0,0,1-.243-.365,1.16,1.16,0,0,1-.089-.454Zm.527,0a.714.714,0,0,0,.049.268.633.633,0,0,0,.138.211.56.56,0,0,0,.195.146.657.657,0,0,0,.252.049.6.6,0,0,0,.438-.187.69.69,0,0,0,.187-.487.633.633,0,0,0-.187-.471.576.576,0,0,0-.438-.195.586.586,0,0,0-.446.187.73.73,0,0,0-.138.211A.714.714,0,0,0,55.457,35.5Zm3.14,3.067H55.9V37.074h.536V38.1H58.6Zm-.625-3.343H57.21v.138a.739.739,0,0,1,0,.138,1.282,1.282,0,0,1,0,.308h.763Z" transform="translate(-23.534 -24.332)" fill="#fff"/>
      <path id="패스_721" data-name="패스 721" d="M60.35,36.2a3.546,3.546,0,0,0,1.1-.536,1.363,1.363,0,0,0,.584-.811H60.593V34.38h2.069a1.793,1.793,0,0,1-.17.811,2,2,0,0,1-.454.617,2.824,2.824,0,0,1-.633.463,5.08,5.08,0,0,1-.755.308Zm1.071,2.475V37.464h2.053v-.333H61.421v-.438H64v1.193H61.94v.349h2.183v.438Zm1.3-3.465v-.446h.755V34.21H64v2.264h-.527v-.389h-.811v-.422h.811v-.438Z" transform="translate(-24.556 -24.332)" fill="#fff"/>
      <path id="패스_722" data-name="패스 722" d="M66.19,34.5h2.053v.454H66.717v1.777h.949a8.325,8.325,0,0,0,.958-.122l.057.438a9.388,9.388,0,0,1-1.177.138H66.19Zm3.246-.292v1.379h.722v.446h-.722V38.47h-.527V34.21Z" transform="translate(-25.657 -24.332)" fill="#fff"/>
      <path id="패스_723" data-name="패스 723" d="M72.177,36.872h.568a2.027,2.027,0,0,0,.544-.049l.5-.065a1.821,1.821,0,0,0,.446-.081l.065.454c-.341.065-.738.114-1.185.154a13.3,13.3,0,0,1-1.428.049V35.662h1.4v-.747H71.65v-.454h1.907v1.623H72.177Zm2.386-2.662h.527v4.26h-.527Z" transform="translate(-26.687 -24.332)" fill="#fff"/>
      <path id="패스_724" data-name="패스 724" d="M361.56,49.532h-1.047v.162a2.328,2.328,0,0,0,.122.811,2.735,2.735,0,0,0,.3.641,2.484,2.484,0,0,0,.414.527,3.192,3.192,0,0,0,.462.381l-.511.519a2.726,2.726,0,0,1-.341-.292,3.243,3.243,0,0,1-.325-.341,4.331,4.331,0,0,1-.284-.389,3.332,3.332,0,0,1-.219-.414,2.768,2.768,0,0,1-.219.438,3.409,3.409,0,0,1-.284.414c-.106.138-.219.268-.333.389a4.1,4.1,0,0,1-.349.316l-.527-.5a2.9,2.9,0,0,0,.463-.406,3.244,3.244,0,0,0,.43-.576,3.718,3.718,0,0,0,.308-.682,2.175,2.175,0,0,0,.13-.755v-.243H358.68v-.674h2.889Zm-2.313-1.185v-.69H361v.69Zm3.7,5.331h-.811V50.733h-.811v-.7h.811V47.6h.811Zm1.315.235h-.755V47.52h.755Z" transform="translate(-80.759 -26.842)" fill="#7c7c7c"/>
      <path id="패스_725" data-name="패스 725" d="M367.671,51.963h.641v-.7H366.73v-.657h6.135v.657H371.3v.7h.519v2.175h-.811V52.645h-3.367Zm4.057-2.986a1.282,1.282,0,0,1-.13.584,1.411,1.411,0,0,1-.381.471,1.93,1.93,0,0,1-.6.325,2.507,2.507,0,0,1-.763.114,2.565,2.565,0,0,1-.811-.114,1.891,1.891,0,0,1-.592-.325,1.315,1.315,0,0,1-.389-1.623,1.493,1.493,0,0,1,.4-.479,1.867,1.867,0,0,1,.592-.308,2.312,2.312,0,0,1,.763-.122,2.216,2.216,0,0,1,.747.122,1.908,1.908,0,0,1,.6.308,1.623,1.623,0,0,1,.389.479,1.193,1.193,0,0,1,.146.576Zm-.811,0a.7.7,0,0,0-.081-.308.731.731,0,0,0-.211-.26,1.355,1.355,0,0,0-.341-.179,1.461,1.461,0,0,0-.438-.065,1.136,1.136,0,0,0-.811.252.69.69,0,0,0-.227.876.924.924,0,0,0,.219.252,1.079,1.079,0,0,0,.349.17,1.509,1.509,0,0,0,.876,0,1.119,1.119,0,0,0,.341-.17.812.812,0,0,0,.211-.252.706.706,0,0,0,.089-.308Zm-1.81,2.986h1.4v-.7h-1.4Z" transform="translate(-82.326 -26.838)" fill="#7c7c7c"/>
      <path id="패스_726" data-name="패스 726" d="M375.1,50.871h1.306V49.313h.811v1.493h.114l1.128-.073a4.883,4.883,0,0,0,.884-.1l.073.657c-.252,0-.552.065-.9.089l-1.128.081-1.152.065h-1.063Zm2.662-.657c.065-.292.122-.592.162-.9s.065-.576.073-.811h-2.434v-.674h3.246a7.111,7.111,0,0,1-.081,1.323,9.575,9.575,0,0,1-.2,1.177Zm2.832,3.846h-4.057V52.04h.811v1.355h3.246Zm.86-3.9h-1.022V52.2h-.811V47.52h.811v1.964h1.022Z" transform="translate(-83.904 -26.842)" fill="#7c7c7c"/>
      <path id="패스_727" data-name="패스 727" d="M376.26,149.479h2.978v.665h-2.215v2.678a16.014,16.014,0,0,0,2.775-.235l.089.657a14.25,14.25,0,0,1-1.72.211c-.633.049-1.266.057-1.907.049Zm4.658-.479v2.061h1.047v.673h-1.047v3.651h-.811V149Z" transform="translate(-84.123 -45.977)" fill="#7c7c7c"/>
      <path id="패스_728" data-name="패스 728" d="M383.46,153v-.657h2.588v-.811h.811v.811h2.58V153Zm2.978-2.434a1.939,1.939,0,0,1-.333.389,3.663,3.663,0,0,1-.5.406,5.119,5.119,0,0,1-.592.333,4.658,4.658,0,0,1-.69.26l-.373-.6a5.33,5.33,0,0,0,.738-.276,3.32,3.32,0,0,0,.657-.406,1.622,1.622,0,0,0,.479-.5,1.03,1.03,0,0,0,.187-.6v-.406h.811v.406a1.079,1.079,0,0,0,.179.6,1.759,1.759,0,0,0,.479.5,3.864,3.864,0,0,0,.657.406,5.438,5.438,0,0,0,.747.276l-.373.6a4.5,4.5,0,0,1-1.29-.6,3.5,3.5,0,0,1-.5-.4,1.622,1.622,0,0,1-.276-.414ZM384.45,155.8v-2.215h3.96V155.8Zm3.205-1.55h-2.434v.884h2.434Z" transform="translate(-85.48 -46.007)" fill="#7c7c7c"/>
      <path id="패스_729" data-name="패스 729" d="M391.5,150.623v-.649h3.652v.649Zm3.246,1.331a1.064,1.064,0,0,1-.1.454,1.259,1.259,0,0,1-.292.365,1.316,1.316,0,0,1-.43.243,1.744,1.744,0,0,1-.552.089,1.713,1.713,0,0,1-.552-.089,1.315,1.315,0,0,1-.43-.243,1.137,1.137,0,0,1-.292-.365,1.087,1.087,0,0,1,0-.9,1.136,1.136,0,0,1,.292-.365,1.314,1.314,0,0,1,.43-.243,1.713,1.713,0,0,1,.552-.089,1.744,1.744,0,0,1,.552.089,1.313,1.313,0,0,1,.43.243,1.259,1.259,0,0,1,.292.365,1.055,1.055,0,0,1,.065.471Zm-2.434-2.28V149h2.183v.665Zm1.769,2.28a.462.462,0,0,0-.195-.381.811.811,0,0,0-.957,0,.462.462,0,0,0-.195.381.471.471,0,0,0,.195.389.811.811,0,0,0,.957,0,.47.47,0,0,0,.13-.365Zm-1.363,1.59h3.863v2.175h-.763v-1.5h-3.1Zm4.869-1.842h-1v1.534h-.763V149h.763v2h1Z" transform="translate(-86.996 -45.977)" fill="#7c7c7c"/>
      <path id="패스_730" data-name="패스 730" d="M402.509,153.8a4.87,4.87,0,0,1-.893-.811,3.3,3.3,0,0,1-.584-.949,3.749,3.749,0,0,1-.6,1.014,3.838,3.838,0,0,1-.917.811l-.495-.576a3.668,3.668,0,0,0,.609-.479,3.406,3.406,0,0,0,.511-.649,3.944,3.944,0,0,0,.349-.811,3.09,3.09,0,0,0,.13-.933v-1.063h.811V150.4a3.163,3.163,0,0,0,.122.893,3.011,3.011,0,0,0,.341.771,3.149,3.149,0,0,0,.5.625,3.36,3.36,0,0,0,.609.479Zm1.753-4.763v2.061h1.047v.674h-1.047v3.651h-.811V149Z" transform="translate(-88.414 -45.977)" fill="#7c7c7c"/>
      <path id="패스_731" data-name="패스 731" d="M409.1,155.152h-.763v-4.39l-.665.576-.446-.5,1.242-1.1h.633Z" transform="translate(-89.962 -46.116)" fill="#7c7c7c"/>
      <path id="패스_732" data-name="패스 732" d="M411.2,152.384h1.315V150.85h.763v1.5h.114l1.1-.081a5.5,5.5,0,0,0,.852-.089l.073.649-.876.1-1.087.081-1.12.065h-1.039Zm2.588-.657c.065-.292.114-.592.154-.9s.065-.576.073-.811h-2.329v-.674h3.124a7.794,7.794,0,0,1-.073,1.323,9.453,9.453,0,0,1-.2,1.185Zm2.751,3.846h-3.879v-2.02h.811V154.9H416.6Zm.811-3.9h-1v2.045h-.771V149h.771v1.964h1Z" transform="translate(-90.711 -45.977)" fill="#7c7c7c"/>
      <path id="패스_733" data-name="패스 733" d="M367.232,270.136h-.876v.373a3.311,3.311,0,0,0,.284,1.42,2.824,2.824,0,0,0,.811,1.006l-.479.454a2.849,2.849,0,0,1-.6-.609,2.734,2.734,0,0,1-.389-.747,3.58,3.58,0,0,1-.373.811,3.456,3.456,0,0,1-.592.665l-.487-.43a2.824,2.824,0,0,0,.811-1.063,3.579,3.579,0,0,0,.284-1.477v-.39h-.909v-.617h2.507Zm1.209,4.463h-.649v-3.14h-.811v-.609h.811v-1.623h.649Zm1.144.211h-.617v-5.68h.657Z" transform="translate(-81.911 -68.628)" fill="#7c7c7c"/>
      <path id="패스_734" data-name="패스 734" d="M374.544,274.548H371.72V274l1.031-1.2a3.384,3.384,0,0,0,1-1.818.625.625,0,0,0-.649-.657,2.264,2.264,0,0,0-1.12.365l-.122-.665a2.638,2.638,0,0,1,1.209-.341,1.4,1.4,0,0,1,.966.308,1.241,1.241,0,0,1,.406,1,4.114,4.114,0,0,1-1.168,2.158l-.649.811h1.915Z" transform="translate(-83.267 -68.731)" fill="#7c7c7c"/>
      <path id="패스_735" data-name="패스 735" d="M380.231,274.065a1.014,1.014,0,0,1-.105.462,1.282,1.282,0,0,1-.308.389,1.736,1.736,0,0,1-.487.26,2.077,2.077,0,0,1-1.258,0,1.622,1.622,0,0,1-.479-.26,1.168,1.168,0,0,1-.308-.389,1.023,1.023,0,0,1-.114-.462.941.941,0,0,1,.081-.4,1.265,1.265,0,0,1,.243-.357,1.411,1.411,0,0,1,.373-.268,1.779,1.779,0,0,1,.495-.162v-.4h-2.3V271.9h5.283v.584h-2.3v.406a1.541,1.541,0,0,1,.5.162,1.41,1.41,0,0,1,.373.268,1.1,1.1,0,0,1,.235.349A.94.94,0,0,1,380.231,274.065Zm-1.5-3.376a2.183,2.183,0,0,1-.738.584,4.3,4.3,0,0,1-1.087.389l-.316-.544a3.586,3.586,0,0,0,1.25-.479.958.958,0,0,0,.511-.682h-1.526v-.609h3.716v.609H379.07a.941.941,0,0,0,.5.673,3.75,3.75,0,0,0,1.266.487l-.316.544a3.945,3.945,0,0,1-1.1-.389A2.233,2.233,0,0,1,378.73,270.689Zm.811,3.4a.447.447,0,0,0-.065-.252.673.673,0,0,0-.178-.195.812.812,0,0,0-.268-.138,1.1,1.1,0,0,0-.333-.049,1.152,1.152,0,0,0-.341.049.812.812,0,0,0-.268.138.675.675,0,0,0-.179.195.528.528,0,0,0-.065.252.552.552,0,0,0,.065.252.519.519,0,0,0,.178.195.813.813,0,0,0,.268.13,1.152,1.152,0,0,0,.341.049,1.135,1.135,0,0,0,.333-.049.811.811,0,0,0,.268-.13.52.52,0,0,0,.178-.195.47.47,0,0,0,.073-.276Z" transform="translate(-84.085 -68.67)" fill="#7c7c7c"/>
      <path id="패스_736" data-name="패스 736" d="M383,274.227v-.584h2.3v-1.388h.69v1.388h2.3v.584Zm2.645-3.189a2.71,2.71,0,0,1-.771.876,4.341,4.341,0,0,1-1.1.633l-.39-.519a3.727,3.727,0,0,0,.649-.325,3.5,3.5,0,0,0,.625-.471,2.7,2.7,0,0,0,.446-.568,1.233,1.233,0,0,0,.178-.641v-.673h.73v.673a1.306,1.306,0,0,0,.17.641,2.3,2.3,0,0,0,.454.568,3.448,3.448,0,0,0,.617.471,3.585,3.585,0,0,0,.665.325l-.4.519a4.935,4.935,0,0,1-1.1-.633A2.783,2.783,0,0,1,385.645,271.038Z" transform="translate(-85.394 -68.67)" fill="#7c7c7c"/>
      <path id="패스_737" data-name="패스 737" d="M390.09,272.855a4.171,4.171,0,0,0,1.623-1.1,3.059,3.059,0,0,0,.755-1.582H390.5v-.617h2.71a4.057,4.057,0,0,1-.2,1.347,3.953,3.953,0,0,1-.56,1.071,4.269,4.269,0,0,1-.811.811,6.111,6.111,0,0,1-1.063.625Zm4.057-3.725h.682v5.68h-.682Z" transform="translate(-86.73 -68.628)" fill="#7c7c7c"/>
      <path id="패스_738" data-name="패스 738" d="M401.085,269.13h.682v3.359h-.682V270.98h-.974a1.38,1.38,0,0,1-.414.811,1.3,1.3,0,0,1-.471.3,1.517,1.517,0,0,1-.576.114,1.542,1.542,0,0,1-.592-.114,1.33,1.33,0,0,1-.479-.3,1.555,1.555,0,0,1-.316-.463,1.468,1.468,0,0,1-.114-.584,1.517,1.517,0,0,1,.114-.576,1.557,1.557,0,0,1,.316-.463,1.454,1.454,0,0,1,.479-.3,1.542,1.542,0,0,1,.592-.114,1.518,1.518,0,0,1,.576.114,1.421,1.421,0,0,1,.471.3,1.4,1.4,0,0,1,.4.706h.99Zm-3.246,1.623a.876.876,0,0,0,.065.341.657.657,0,0,0,.17.26.816.816,0,0,0,.893.17.691.691,0,0,0,.252-.17.658.658,0,0,0,.17-.26.876.876,0,0,0,.065-.341.932.932,0,0,0-.065-.333.812.812,0,0,0-.17-.26.69.69,0,0,0-.252-.17.807.807,0,0,0-1.128.73Zm.649,4.382v-2.378h.69v.641h1.907v-.641h.682v2.378Zm2.6-.584v-.568h-1.915v.568Z" transform="translate(-88.062 -68.628)" fill="#7c7c7c"/>
      <path id="패스_739" data-name="패스 739" d="M403.91,272.108h1.128v-1.363h.673v1.331h.106l.974-.073a7.171,7.171,0,0,0,.755-.081l.065.584-.811.081-.966.073-1,.057h-.917Zm2.3-.584a8.06,8.06,0,0,0,.138-.811c.032-.284.057-.511.065-.714H404.34v-.6h2.775a6.913,6.913,0,0,1-.065,1.177,7.81,7.81,0,0,1-.179,1.047Zm2.434,3.416h-3.465v-1.793h.69v1.2h2.775Zm.747-3.473h-.893v1.818h-.682V269.13h.682v1.745h.893Z" transform="translate(-89.336 -68.628)" fill="#7c7c7c"/>
      <path id="패스_740" data-name="패스 740" d="M413.045,269.53l-1.818,5.453h-.657l1.818-5.453Z" transform="translate(-90.592 -68.704)" fill="#7c7c7c"/>
      <path id="패스_741" data-name="패스 741" d="M370.1,279.119h2.645v.641h-1.964v2.378a10.583,10.583,0,0,0,1.225-.049,11.231,11.231,0,0,0,1.242-.162l.073.584a11.359,11.359,0,0,1-1.525.187,16.842,16.842,0,0,1-1.7.041Zm4.163-.389v1.842h.933v.6h-.933v3.246h-.673v-5.68Z" transform="translate(-82.961 -70.438)" fill="#7c7c7c"/>
      <path id="패스_742" data-name="패스 742" d="M376.5,282.2v-.584h2.3v-.738h.69v.738h2.28v.584Zm2.645-2.183a1.728,1.728,0,0,1-.292.341,3.189,3.189,0,0,1-.446.357,3.388,3.388,0,0,1-.536.3,4.4,4.4,0,0,1-.6.235l-.341-.536a4.136,4.136,0,0,0,.665-.252,2.754,2.754,0,0,0,.576-.357,1.5,1.5,0,0,0,.43-.446.941.941,0,0,0,.162-.535v-.357h.755v.357a1.006,1.006,0,0,0,.162.536,1.5,1.5,0,0,0,.43.446,2.755,2.755,0,0,0,.576.357,3.869,3.869,0,0,0,.665.252l-.333.536a4.13,4.13,0,0,1-1.144-.536,3.305,3.305,0,0,1-.446-.357,1.427,1.427,0,0,1-.284-.308Zm-1.761,4.65V282.7H380.9v1.972Zm2.84-1.379h-2.167v.811h2.167Z" transform="translate(-84.168 -70.446)" fill="#7c7c7c"/>
      <path id="패스_743" data-name="패스 743" d="M383.65,280.158v-.576H386.9v.576Zm2.856,1.193a.95.95,0,0,1-.089.4,1,1,0,0,1-.26.325,1.177,1.177,0,0,1-.381.219,1.688,1.688,0,0,1-.982,0,1.306,1.306,0,0,1-.389-.219,1.1,1.1,0,0,1-.252-.325.949.949,0,0,1-.089-.4.925.925,0,0,1,.089-.4,1,1,0,0,1,.252-.325,1.152,1.152,0,0,1,.389-.219,1.4,1.4,0,0,1,.487-.081,1.411,1.411,0,0,1,.495.081,1.047,1.047,0,0,1,.381.219.917.917,0,0,1,.349.722Zm-2.191-2.037v-.584h1.931v.584Zm1.566,2.069a.438.438,0,0,0-.17-.349.7.7,0,0,0-.43-.13.674.674,0,0,0-.422.13.438.438,0,0,0-.17.349.414.414,0,0,0,.17.341.674.674,0,0,0,.422.138.7.7,0,0,0,.43-.138.414.414,0,0,0,.17-.341Zm-1.185,1.388h3.441V284.7h-.682v-1.331H384.7Zm4.325-1.623h-.884v1.363h-.682v-3.733h.682v1.777h.884Z" transform="translate(-85.516 -70.438)" fill="#7c7c7c"/>
      <path id="패스_744" data-name="패스 744" d="M393.426,282.958a4.057,4.057,0,0,1-.811-.706,3,3,0,0,1-.527-.852,3.149,3.149,0,0,1-.527.909,3.714,3.714,0,0,1-.811.738l-.438-.519a2.839,2.839,0,0,0,.536-.422,2.345,2.345,0,0,0,.454-.584,3.464,3.464,0,0,0,.316-.706,2.955,2.955,0,0,0,.114-.811v-.949h.763v.925a2.848,2.848,0,0,0,.414,1.485,3.3,3.3,0,0,0,.446.56,3.364,3.364,0,0,0,.544.422Zm1.558-4.228v1.842h.933v.6h-.933v3.246H394.3v-5.68Z" transform="translate(-86.772 -70.438)" fill="#7c7c7c"/>
      <path id="패스_745" data-name="패스 745" d="M400.344,284.142H397.52v-.576l1.039-1.2a3.384,3.384,0,0,0,1-1.818.657.657,0,0,0-.187-.479.641.641,0,0,0-.471-.178,2.313,2.313,0,0,0-1.12.365l-.122-.665a2.671,2.671,0,0,1,1.209-.341,1.42,1.42,0,0,1,.974.308,1.242,1.242,0,0,1,.406,1,4.114,4.114,0,0,1-1.168,2.158l-.649.811h1.915Z" transform="translate(-88.131 -70.536)" fill="#7c7c7c"/>
      <path id="패스_746" data-name="패스 746" d="M401.91,281.708h1.128v-1.363h.682v1.331h.1l.974-.073a4.48,4.48,0,0,0,.763-.081l.065.584-.811.081-.966.073-1,.057h-.917Zm2.3-.584a8.032,8.032,0,0,0,.146-.811,6.556,6.556,0,0,0,.057-.714H402.34V279h2.775a11.079,11.079,0,0,1-.065,1.177,9.393,9.393,0,0,1-.17,1.047Zm2.434,3.416h-3.473v-1.793h.69v1.2h2.783Zm.738-3.473h-.884v1.818h-.682V278.73h.682v1.745h.884Z" transform="translate(-88.959 -70.438)" fill="#7c7c7c"/>
      <rect id="사각형_100" data-name="사각형 100" width="15.474" height="16.846" transform="translate(218.385 3.548)" fill="#fff"/>
    </g>
    <path id="패스_747" data-name="패스 747" d="M251.594,220.382c0,12.813-17.941,32.3-17.941,32.3s-17.933-19.888-17.933-32.3c0-9.332,8.025-16.9,17.933-16.9S251.594,211.051,251.594,220.382Z" transform="translate(-37.514 -34.155)" fill="#3677dc"/>
    <circle id="타원_4" data-name="타원 4" cx="13.989" cy="13.989" r="13.989" transform="translate(182.15 173.195)" fill="#fff"/>
    <path id="패스_748" data-name="패스 748" d="M231.73,224.713V224.5a4.349,4.349,0,0,1,2.58-3.862s-2.094.227-5.68,3.919a7.449,7.449,0,0,0,5.68,7.254C230.764,228.276,231.527,225.314,231.73,224.713Z" transform="translate(-39.948 -37.391)" fill="url(#linear-gradient)"/>
    <path id="패스_749" data-name="패스 749" d="M234.3,219.825a4.479,4.479,0,0,1,1.834-.4h7.392V216.32h-7.392a7.506,7.506,0,0,0-7.546,7.384v.049C232.209,220.053,234.3,219.825,234.3,219.825Z" transform="translate(-39.941 -36.576)" fill="url(#linear-gradient-2)"/>
    <path id="패스_750" data-name="패스 750" d="M234.982,229.49h0a4.366,4.366,0,0,1-2.58-3.83c-.2.6-.966,3.562,2.58,7.1a7.434,7.434,0,0,0,5.956-1.087C236.54,231.673,234.982,229.49,234.982,229.49Z" transform="translate(-40.62 -38.338)" fill="url(#linear-gradient-3)"/>
    <path id="패스_751" data-name="패스 751" d="M244.588,227.4a1.526,1.526,0,0,0-1.485-1.907h-.057a1.534,1.534,0,0,0-1.477,1.152,4.333,4.333,0,0,1-5.94,2.816h0s1.558,2.183,5.956,2.183A7.5,7.5,0,0,0,244.588,227.4Z" transform="translate(-41.268 -38.306)" fill="url(#linear-gradient-4)"/>
    <path id="패스_752" data-name="패스 752" d="M234.3,219.825a4.479,4.479,0,0,1,1.834-.4h7.392V216.32h-7.392a7.506,7.506,0,0,0-7.546,7.384v.049C232.209,220.053,234.3,219.825,234.3,219.825Z" transform="translate(-39.941 -36.576)" fill="url(#linear-gradient-5)"/>
    <path id="패스_753" data-name="패스 753" d="M231.73,224.713V224.5a4.349,4.349,0,0,1,2.58-3.862s-2.094.227-5.68,3.919a7.449,7.449,0,0,0,5.68,7.254C230.764,228.276,231.527,225.314,231.73,224.713Z" transform="translate(-39.948 -37.391)" fill="url(#linear-gradient-6)"/>
    <path id="패스_754" data-name="패스 754" d="M234.982,229.49h0a4.366,4.366,0,0,1-2.58-3.83c-.2.6-.966,3.562,2.58,7.1a7.434,7.434,0,0,0,5.956-1.087C236.54,231.673,234.982,229.49,234.982,229.49Z" transform="translate(-40.62 -38.338)" fill="url(#linear-gradient-7)"/>
    <path id="패스_755" data-name="패스 755" d="M244.588,227.4a1.526,1.526,0,0,0-1.485-1.907h-.057a1.534,1.534,0,0,0-1.477,1.152,4.333,4.333,0,0,1-5.94,2.816h0s1.558,2.183,5.956,2.183A7.5,7.5,0,0,0,244.588,227.4Z" transform="translate(-41.268 -38.306)" fill="url(#linear-gradient-8)"/>
    <path id="패스_756" data-name="패스 756" d="M234.3,219.825a4.479,4.479,0,0,1,1.834-.4h7.392V216.32h-7.392a7.506,7.506,0,0,0-7.546,7.384v.049C232.209,220.053,234.3,219.825,234.3,219.825Z" transform="translate(-39.941 -36.576)" fill="url(#radial-gradient)"/>
    <path id="패스_757" data-name="패스 757" d="M234.469,218.23h-.049" transform="translate(-41.04 -36.937)" fill="none"/>
  </g>
</svg>
