<svg xmlns="http://www.w3.org/2000/svg" width="46" height="46" viewBox="0 0 46 46">
  <g id="그룹_138" data-name="그룹 138" transform="translate(-292 -3263)">
    <g id="logo_splash" transform="translate(302.371 3273.843)">
      <g id="그룹_94" data-name="그룹 94" transform="translate(-0.002)">
        <g id="그룹_93" data-name="그룹 93" transform="translate(0)">
          <g id="그룹_92" data-name="그룹 92">
            <path id="패스_159" data-name="패스 159" d="M124.981,468.249c0-.118,0-.232,0-.348a7.082,7.082,0,0,1,4.209-6.3s-3.41.371-9.289,6.391a12.172,12.172,0,0,0,9.283,11.851C123.4,474.061,124.642,469.229,124.981,468.249Z" transform="translate(-119.898 -455.877)" fill="rgba(255,255,255,0.75)"/>
            <path id="패스_160" data-name="패스 160" d="M129.189,289.724a7.272,7.272,0,0,1,2.991-.645l12.1,0a.007.007,0,0,0,.006-.006V284.01a.007.007,0,0,0-.006-.006l-12.054,0A12.262,12.262,0,0,0,119.9,296.041v.074C125.779,290.093,129.189,289.724,129.189,289.724Z" transform="translate(-119.899 -284)" fill="#fff"/>
            <path id="패스_161" data-name="패스 161" d="M271.4,674.15h0a7.086,7.086,0,0,1-4.2-6.25c-.338.98-1.576,5.811,4.2,11.594a12.119,12.119,0,0,0,9.724-1.779C273.937,677.714,271.4,674.15,271.4,674.15Z" transform="translate(-262.111 -655.525)" fill="rgba(255,255,255,0.55)"/>
            <path id="패스_162" data-name="패스 162" d="M422.72,664.405A2.489,2.489,0,0,0,420.3,661.3h-.09a2.516,2.516,0,0,0-2.417,1.873,7.073,7.073,0,0,1-9.692,4.59h0s2.54,3.565,9.721,3.568a12.2,12.2,0,0,0,4.9-6.925Z" transform="translate(-398.81 -649.138)" fill="rgba(255,255,255,0.25)"/>
            <path id="패스_163" data-name="패스 163" d="M129.189,289.724a7.272,7.272,0,0,1,2.991-.645l12.1,0a.007.007,0,0,0,.006-.006V284.01a.007.007,0,0,0-.006-.006l-12.054,0A12.262,12.262,0,0,0,119.9,296.041v.074C125.779,290.093,129.189,289.724,129.189,289.724Z" transform="translate(-119.899 -284)" fill="rgba(255,255,255,0.3)"/>
            <g id="그룹_91" data-name="그룹 91" transform="translate(0.001)">
              <path id="패스_164" data-name="패스 164" d="M124.981,468.249c0-.118,0-.232,0-.348a7.082,7.082,0,0,1,4.209-6.3s-3.41.371-9.289,6.391a12.172,12.172,0,0,0,9.283,11.851C123.4,474.061,124.642,469.229,124.981,468.249Z" transform="translate(-119.898 -455.876)" fill="rgba(255,255,255,0.3)"/>
              <path id="패스_165" data-name="패스 165" d="M271.4,674.15h0a7.086,7.086,0,0,1-4.2-6.25c-.338.98-1.576,5.811,4.2,11.594a12.119,12.119,0,0,0,9.724-1.779C273.937,677.714,271.4,674.15,271.4,674.15Z" transform="translate(-262.111 -655.527)" fill="rgba(255,255,255,0.3)"/>
              <path id="패스_166" data-name="패스 166" d="M422.72,664.405A2.489,2.489,0,0,0,420.3,661.3h-.09a2.516,2.516,0,0,0-2.417,1.873,7.073,7.073,0,0,1-9.692,4.59h0s2.54,3.565,9.721,3.568a12.2,12.2,0,0,0,4.9-6.925Z" transform="translate(-398.811 -649.139)" fill="rgba(255,255,255,0.3)"/>
              <path id="패스_167" data-name="패스 167" d="M129.189,289.724a7.272,7.272,0,0,1,2.991-.645l12.1,0a.007.007,0,0,0,.006-.006V284.01a.007.007,0,0,0-.006-.006l-12.054,0A12.262,12.262,0,0,0,119.9,296.041v.074C125.779,290.093,129.189,289.724,129.189,289.724Z" transform="translate(-119.9 -284)" fill="rgba(255,255,255,0.3)"/>
            </g>
          </g>
        </g>
      </g>
    </g>
    <g id="타원_5" data-name="타원 5" transform="translate(292 3263)" fill="none" stroke="#ededed" stroke-width="0.5">
      <circle cx="23" cy="23" r="23" stroke="none"/>
      <circle cx="23" cy="23" r="22.75" fill="none"/>
    </g>
  </g>
</svg>
